<svg width="582" height="344" viewBox="0 0 582 344" fill="none" xmlns="http://www.w3.org/2000/svg">
<path d="M386.79 85.0591C386.291 84.7644 385.878 84.344 385.592 83.8398C385.306 83.3357 385.158 82.7654 385.161 82.1858V75.2388C385.853 74.4937 386.448 73.665 386.934 72.7719C388.122 70.5772 387.919 68.2213 388.478 65.803C388.846 66.1641 389.369 66.2985 389.855 66.1579C390.098 66.085 390.318 65.9503 390.494 65.767C390.669 65.5837 390.794 65.358 390.856 65.112L392.366 59.636C392.469 59.2716 392.469 58.886 392.367 58.5214C392.265 58.1568 392.065 57.8274 391.788 57.5694C391.225 57.0551 390.428 56.9238 389.74 57.2302L390.107 53.7394C390.286 52.2609 390.238 50.7638 389.965 49.2998C389.39 46.4364 387.95 43.8185 385.839 41.7994C386.288 40.5925 386.512 39.3076 386.493 38.0132H376.519C370.044 38.0132 364.451 42.7139 363.11 49.2873C362.835 50.7512 362.79 52.2493 362.979 53.7269L363.347 57.2177C363.01 57.0674 362.637 57.0194 362.273 57.0797C361.909 57.1401 361.57 57.306 361.3 57.5569C360.737 58.0728 360.512 58.8763 360.721 59.6235L362.219 65.1496C362.284 65.3929 362.41 65.6155 362.586 65.7964C362.761 65.9772 362.98 66.1102 363.221 66.1829C363.705 66.3236 364.226 66.1938 364.597 65.839C365.144 68.3073 364.953 70.6131 366.129 72.8095C366.614 73.7025 367.21 74.5312 367.901 75.2763V82.2202C367.907 82.8005 367.76 83.372 367.474 83.8769C367.188 84.3818 366.773 84.802 366.272 85.095L354.693 91.842C367.141 103.443 386.016 103.443 398.464 91.842L386.79 85.0575V85.0591Z" fill="#F0F2FF"/>
<path d="M246.115 207.69L246.859 201.28C247.221 198.57 247.128 195.817 246.582 193.137C245.402 187.847 242.527 183.039 238.358 179.381C239.271 177.177 239.742 174.826 239.745 172.454H219.877C217.901 172.463 215.932 172.677 214 173.092C219.307 192.154 231.858 208.646 249.205 219.351L251.363 212.123C251.566 211.446 251.566 210.724 251.361 210.047C251.156 209.37 250.756 208.769 250.211 208.318C249.65 207.851 248.972 207.545 248.25 207.435C247.528 207.324 246.79 207.412 246.115 207.69ZM236.884 254.142V241.263C238.211 239.885 239.359 238.344 240.301 236.678C242.399 232.933 242.254 228.944 243.059 224.821C238.431 221.714 234.108 218.176 230.148 214.254C219.388 203.551 211.617 190.217 207.611 175.579C204.27 177.392 201.359 179.906 199.079 182.947C196.798 185.988 195.201 189.486 194.396 193.201C193.872 195.911 193.785 198.687 194.14 201.424L194.847 207.893C194.195 207.611 193.476 207.52 192.774 207.63C192.073 207.74 191.417 208.047 190.882 208.515C190.349 208.982 189.96 209.591 189.761 210.272C189.562 210.952 189.561 211.675 189.758 212.356L192.663 222.498C192.794 222.952 193.039 223.364 193.374 223.697C193.709 224.029 194.123 224.271 194.578 224.399C195.032 224.526 195.512 224.536 195.971 224.427C196.43 224.318 196.854 224.094 197.203 223.775C198.276 228.262 197.898 232.616 200.168 236.678C201.11 238.344 202.257 239.885 203.584 241.263V254.142C203.586 255.227 203.298 256.294 202.749 257.231C202.199 258.167 201.409 258.94 200.46 259.467L178.045 272.019C202.053 293.506 238.452 293.506 262.46 272.019L240.02 259.467C239.069 258.941 238.276 258.17 237.724 257.233C237.173 256.296 236.883 255.229 236.884 254.142Z" fill="#EBECED"/>
<path d="M376.576 253.078L391.544 238.11L439.106 285.671L424.138 300.64L376.576 253.078Z" fill="#D9FFEE"/>
<path d="M127.011 170.071V175.923C127.016 177.012 126.729 178.081 126.18 179.021C125.63 179.961 124.839 180.736 123.888 181.265L101.447 193.843C125.454 215.347 161.856 215.347 185.863 193.843L163.422 181.287C162.469 180.759 161.675 179.985 161.123 179.045C160.571 178.105 160.282 177.035 160.286 175.945V163.073M438.971 285.608L389.882 236.554C388.547 235.212 386.873 234.258 385.039 233.795C380.611 232.827 376.532 230.663 373.249 227.539L370.912 225.203C367.208 221.447 364.846 216.575 364.189 211.34C363.533 206.106 364.619 200.802 367.28 196.247C388.892 158.354 379.094 110.323 344.365 83.9153C309.637 57.5059 260.711 60.8825 229.943 91.8097C199.174 122.74 196.072 171.66 222.689 206.224C249.305 240.789 297.413 250.31 335.199 228.495C339.719 225.912 344.965 224.891 350.123 225.591C355.282 226.291 360.065 228.673 363.733 232.367L366.069 234.703C369.192 237.989 371.36 242.064 372.341 246.49C372.797 248.323 373.748 249.997 375.089 251.328L424.481 300.698C425.474 301.69 426.656 302.473 427.956 303C429.257 303.527 430.65 303.788 432.053 303.767C433.457 303.745 434.841 303.442 436.125 302.875C437.409 302.309 438.567 301.49 439.529 300.469C441.365 298.395 442.332 295.694 442.228 292.927C442.124 290.159 440.957 287.538 438.971 285.608Z" stroke="#4353FF"/>
<path d="M457.322 170.075V175.929C457.317 177.018 457.604 178.089 458.154 179.029C458.704 179.969 459.496 180.744 460.447 181.274L482.878 193.838C458.873 215.35 422.468 215.35 398.463 193.838L420.906 181.285C422.85 180.208 424.052 178.16 424.042 175.942V163.075M169.641 130.962L170.376 124.578C170.735 121.877 170.642 119.138 170.102 116.465C168.939 111.19 166.099 106.396 161.974 102.747C162.877 100.554 163.341 98.2171 163.346 95.8597H143.701C136.011 95.7252 128.644 98.8173 123.513 104.332C118.381 109.846 115.994 117.236 116.974 124.577L117.709 130.962C117.043 130.69 116.316 130.606 115.606 130.717C114.896 130.828 114.23 131.131 113.68 131.594C113.143 132.043 112.749 132.639 112.546 133.309C112.342 133.979 112.339 134.694 112.536 135.366L115.503 145.375C115.649 145.824 115.907 146.228 116.252 146.55C116.597 146.871 117.018 147.1 117.476 147.214C117.938 147.335 118.423 147.34 118.887 147.228C119.352 147.117 119.782 146.893 120.139 146.576C121.237 151.016 120.851 155.301 123.169 159.321C124.139 160.969 125.312 162.489 126.66 163.845C131.079 168.343 137.227 170.891 143.657 170.891C150.087 170.891 156.233 168.343 160.653 163.845C162.001 162.489 163.173 160.969 164.143 159.321C166.462 155.301 166.088 151.016 167.173 146.576C167.53 146.893 167.96 147.117 168.425 147.228C168.89 147.34 169.374 147.335 169.837 147.214C170.294 147.1 170.716 146.871 171.061 146.55C171.406 146.228 171.663 145.824 171.809 145.375L174.776 135.366C174.968 134.698 174.963 133.989 174.761 133.325C174.558 132.66 174.168 132.068 173.637 131.62C173.093 131.16 172.434 130.855 171.73 130.739C171.026 130.623 170.304 130.7 169.641 130.962Z" stroke="#4353FF"/>
<path fill-rule="evenodd" clip-rule="evenodd" d="M414.669 130.961L413.985 124.575C412.85 116.409 415.992 108.233 422.375 102.745C421.483 100.557 421.021 98.2179 421.015 95.8555H440.662C453.414 95.8602 464.428 104.452 467.076 116.462C467.612 119.135 467.701 121.876 467.338 124.575L466.615 130.961C467.28 130.689 468.007 130.604 468.718 130.715C469.428 130.827 470.094 131.13 470.645 131.593C471.748 132.532 472.192 134 471.789 135.365L468.834 145.374C468.686 145.823 468.427 146.227 468.081 146.549C467.734 146.87 467.312 147.099 466.854 147.213C466.39 147.333 465.905 147.338 465.439 147.227C464.974 147.116 464.542 146.892 464.184 146.575C463.1 151.015 463.486 155.301 461.156 159.32C460.194 160.971 459.025 162.492 457.677 163.846C453.258 168.343 447.11 170.891 440.68 170.891C434.249 170.891 428.102 168.343 423.683 163.846C422.335 162.489 421.162 160.969 420.192 159.32C417.862 155.301 418.248 151.016 417.163 146.575C416.804 146.892 416.373 147.115 415.908 147.227C415.443 147.338 414.957 147.333 414.494 147.213C414.036 147.099 413.614 146.87 413.267 146.549C412.921 146.227 412.662 145.823 412.514 145.374L409.547 135.365C409.356 134.698 409.362 133.991 409.564 133.328C409.766 132.665 410.155 132.074 410.685 131.627C411.227 131.167 411.884 130.862 412.586 130.744C413.288 130.627 414.008 130.702 414.671 130.961H414.669Z" stroke="#4353FF"/>
<path d="M306.979 171.931V174.218C306.978 175.517 307.323 176.793 307.98 177.913C308.637 179.034 309.581 179.959 310.715 180.593L334.368 193.854C310.362 215.345 273.96 215.345 249.953 193.854L273.608 180.593C274.742 179.959 275.686 179.034 276.343 177.913C277 176.793 277.345 175.517 277.344 174.218V163.075" stroke="#00CC6F"/>
<path d="M270.183 148.688C270.433 150.939 270.96 153.151 271.752 155.276C273.203 159.025 275.436 162.423 278.302 165.243V165.243C285.918 172.539 297.979 172.798 305.911 165.837C308.758 163.269 311.055 160.15 312.664 156.67C313.903 153.89 314.687 150.929 314.985 147.9L315.612 137.278L268.715 130.247" stroke="#00CC6F"/>
<path d="M324.99 181.809V130.859C324.997 121.993 321.54 113.487 315.384 107.215C309.225 100.943 300.873 97.4199 292.162 97.4199C283.452 97.4199 275.098 100.943 268.94 107.215C262.784 113.487 259.328 121.993 259.334 130.859V181.835" stroke="#00CC6F"/>
<path d="M260.247 98.927C283.208 84.6655 310.981 79.9147 337.495 85.7113C310.553 68.031 275.441 67.9669 248.431 85.5503C221.423 103.134 207.794 134.928 213.861 166.201C219.067 138.388 235.89 113.989 260.249 98.927H260.247Z" fill="#F0F2FF"/>
<path d="M335.934 227.168C348.973 219.742 359.773 208.943 367.199 195.903" stroke="#4353FF"/>
</svg>
