<svg width="639" height="352" viewBox="0 0 639 352" fill="none" xmlns="http://www.w3.org/2000/svg">
<path d="M338.463 134.649C326.681 138.3 314.071 138.3 302.289 134.649C286.027 142.086 276.172 158.697 277.58 176.302C278.987 193.907 291.357 208.794 308.601 213.634C316.175 210.71 324.565 210.71 332.139 213.634C349.383 208.797 361.758 193.91 363.166 176.305C364.576 158.702 354.725 142.089 338.463 134.649ZM334.838 177.526C334.56 182.203 332.053 186.487 328.057 189.118L319.522 194.746L311.008 189.118C307.016 186.486 304.516 182.202 304.243 177.528L303.203 160.4C313.991 161.756 319.522 155.252 319.522 155.252C319.522 155.252 325.039 161.756 335.827 160.4L334.838 177.524V177.526Z" fill="#D9FFEE"/>
<path d="M412.936 243.15C411.679 242.468 410.903 241.197 410.9 239.819V231.805C411.767 230.958 412.516 229.997 413.127 228.95C414.612 226.424 414.408 223.714 415.06 220.908C415.517 221.321 416.164 221.473 416.769 221.314C417.061 221.24 417.33 221.093 417.548 220.885C417.767 220.678 417.928 220.417 418.017 220.129L419.911 213.807C420.035 213.382 420.031 212.93 419.901 212.507C419.771 212.084 419.519 211.708 419.178 211.427C418.826 211.134 418.401 210.943 417.949 210.872C417.496 210.801 417.034 210.854 416.609 211.025L417.069 206.998C417.302 205.297 417.246 203.569 416.903 201.887C416.138 198.526 414.322 195.496 411.719 193.236C412.294 191.856 412.59 190.375 412.589 188.88H400.072C391.943 188.88 384.924 194.306 383.241 201.887C382.898 203.569 382.841 205.297 383.074 206.998L383.536 211.025C383.112 210.854 382.649 210.801 382.197 210.872C381.744 210.943 381.32 211.134 380.968 211.427C380.264 212.019 379.979 212.945 380.234 213.807L382.128 220.127C382.297 220.704 382.771 221.154 383.375 221.312C383.979 221.473 384.628 221.319 385.085 220.908C385.789 223.714 385.532 226.424 387.017 228.95C387.623 229.992 388.373 230.952 389.244 231.805V239.82C389.24 241.199 388.464 242.47 387.209 243.151L372.605 250.959C388.231 264.34 411.926 264.34 427.552 250.959L412.936 243.15Z" fill="#EBECED"/>
<path d="M253.195 243.15C251.938 242.468 251.162 241.197 251.16 239.819V231.805C252.024 230.946 252.773 229.985 253.387 228.95C254.859 226.424 254.667 223.714 255.307 220.908C255.766 221.319 256.415 221.472 257.021 221.312C257.627 221.152 258.103 220.704 258.276 220.127L260.158 213.808C260.28 213.385 260.277 212.934 260.147 212.513C260.017 212.091 259.766 211.717 259.426 211.435C259.076 211.143 258.654 210.951 258.203 210.879C257.753 210.807 257.292 210.857 256.868 211.025L257.328 206.998C258.051 201.849 256.047 196.693 251.979 193.236C252.548 191.854 252.844 190.375 252.848 188.88H240.331C232.202 188.88 225.183 194.306 223.5 201.887C223.157 203.569 223.102 205.297 223.335 206.998L223.795 211.025C223.371 210.854 222.908 210.801 222.456 210.872C222.003 210.943 221.579 211.134 221.227 211.427C220.523 212.019 220.238 212.945 220.493 213.807L222.387 220.127C222.556 220.704 223.03 221.154 223.634 221.312C224.24 221.473 224.887 221.319 225.344 220.908C226.034 223.714 225.791 226.424 227.276 228.95C227.903 230 228.669 230.961 229.554 231.805V239.82C229.551 241.203 228.77 242.475 227.508 243.151L212.916 250.959C228.541 264.34 252.237 264.34 267.862 250.959L253.195 243.15Z" fill="#F0F2FF"/>
<path d="M379.577 267.863C411.476 246.9 430.299 210.525 429.226 171.92C428.151 133.315 407.336 98.0809 374.322 78.9854" stroke="#4353FF"/>
<path d="M382.909 77.8438C382.916 78.1631 382.682 78.4276 382.385 78.4413L374.037 78.7109L377.79 86.7176C377.856 86.8561 377.867 87.0141 377.821 87.1604C377.776 87.3066 377.677 87.4305 377.545 87.5075C377.479 87.5416 377.408 87.5618 377.335 87.5669C377.262 87.5721 377.188 87.562 377.119 87.5373C377.05 87.5126 376.986 87.4739 376.933 87.4236C376.879 87.3732 376.837 87.3123 376.808 87.2448L372.671 78.419C372.628 78.3312 372.605 78.2345 372.605 78.1365C372.605 78.0386 372.628 77.9419 372.671 77.8541C372.717 77.7707 372.783 77.7002 372.863 77.6492C372.943 77.5981 373.035 77.5682 373.13 77.5622L382.33 77.2686C382.434 77.2708 382.535 77.2991 382.625 77.351C382.71 77.4028 382.781 77.4751 382.83 77.5612C382.88 77.6473 382.907 77.7445 382.909 77.8438Z" fill="#4353FF"/>
<path d="M267.863 77.2686C233.315 95.9263 211.216 130.893 209.58 169.499C207.944 208.106 227.003 244.748 259.856 266.147" stroke="#4353FF"/>
<path d="M248.975 265.194C248.992 264.871 249.242 264.622 249.541 264.627L257.879 264.981L254.61 256.684C254.568 256.587 254.55 256.482 254.559 256.377C254.568 256.272 254.603 256.171 254.662 256.083C254.716 255.999 254.794 255.933 254.885 255.891C254.976 255.85 255.077 255.835 255.177 255.849C255.374 255.879 255.541 256.021 255.613 256.224L259.208 265.324C259.253 265.411 259.276 265.508 259.276 265.606C259.276 265.704 259.253 265.8 259.208 265.887C259.159 265.967 259.09 266.033 259.008 266.078C258.926 266.123 258.833 266.146 258.74 266.145L249.553 265.759C249.448 265.762 249.346 265.723 249.268 265.652C249.186 265.605 249.117 265.539 249.065 265.459C249.014 265.379 248.983 265.288 248.975 265.194Z" fill="#4353FF"/>
<path d="M180.707 296.477C179.776 295.96 179.001 295.202 178.462 294.284C177.923 293.366 177.64 292.32 177.642 291.255V278.612C178.942 277.263 180.065 275.753 180.983 274.119C183.207 270.139 182.843 265.884 183.873 261.478C184.213 261.794 184.628 262.018 185.08 262.128C185.531 262.237 186.003 262.228 186.45 262.102C186.897 261.976 187.304 261.736 187.631 261.407C187.959 261.078 188.196 260.67 188.32 260.223L191.146 250.293C191.324 249.633 191.313 248.936 191.115 248.282C190.917 247.628 190.539 247.043 190.024 246.593C189.51 246.143 188.879 245.847 188.205 245.738C187.53 245.628 186.838 245.71 186.208 245.974L186.9 239.697C187.436 235.706 186.984 231.645 185.584 227.87C184.185 224.094 181.88 220.72 178.873 218.043C179.721 215.862 180.147 213.539 180.128 211.2H161.285C155.374 211.2 149.642 213.23 145.048 216.95C140.455 220.67 137.278 225.855 136.049 231.637C135.572 234.298 135.521 237.019 135.898 239.697L136.602 245.974C135.965 245.707 135.266 245.626 134.585 245.738C133.904 245.851 133.269 246.153 132.752 246.61C132.235 247.068 131.857 247.662 131.663 248.324C131.468 248.986 131.464 249.69 131.652 250.355L134.492 260.284C134.616 260.73 134.853 261.136 135.179 261.464C135.506 261.792 135.911 262.03 136.356 262.156C136.801 262.282 137.271 262.291 137.721 262.184C138.171 262.076 138.586 261.854 138.925 261.54C139.967 265.947 139.603 270.202 141.827 274.182C142.745 275.794 143.864 277.282 145.156 278.612V291.166C145.158 292.23 144.877 293.274 144.34 294.193C143.803 295.111 143.031 295.869 142.103 296.389L120.195 308.742C143.633 329.788 179.177 329.788 202.615 308.742L180.707 296.477Z" fill="#EBECED"/>
<path d="M496.648 296.478C495.717 295.961 494.942 295.204 494.403 294.285C493.864 293.366 493.581 292.32 493.583 291.255V278.614C494.884 277.265 496.007 275.755 496.925 274.12C499.148 270.14 498.77 265.885 499.814 261.479C500.155 261.793 500.571 262.014 501.022 262.121C501.472 262.228 501.943 262.219 502.388 262.093C502.834 261.967 503.24 261.729 503.568 261.402C503.896 261.075 504.135 260.67 504.262 260.224L507.088 250.294C507.264 249.636 507.252 248.942 507.054 248.29C506.856 247.638 506.48 247.054 505.968 246.605C505.455 246.155 504.828 245.858 504.155 245.747C503.483 245.636 502.793 245.715 502.163 245.976L502.854 239.7C503.39 235.709 502.938 231.648 501.538 227.872C500.139 224.096 497.834 220.722 494.826 218.044C495.675 215.864 496.1 213.542 496.083 211.203H477.34C473.712 211.145 470.114 211.867 466.79 213.321C463.466 214.774 460.494 216.926 458.074 219.629C455.656 222.331 453.847 225.522 452.771 228.986C451.695 232.449 451.378 236.103 451.839 239.7L452.543 245.976C451.907 245.709 451.208 245.627 450.527 245.74C449.846 245.852 449.21 246.154 448.693 246.612C448.176 247.069 447.799 247.663 447.604 248.326C447.409 248.988 447.406 249.692 447.593 250.356L450.433 260.286C450.557 260.732 450.794 261.138 451.121 261.465C451.447 261.793 451.853 262.032 452.298 262.158C452.743 262.284 453.213 262.293 453.663 262.185C454.113 262.077 454.527 261.855 454.867 261.541C455.909 265.949 455.545 270.204 457.768 274.182C458.678 275.819 459.796 277.33 461.098 278.678V291.229C461.1 292.293 460.818 293.338 460.281 294.256C459.745 295.174 458.973 295.933 458.045 296.453L436.137 308.742C459.575 329.788 495.118 329.788 518.556 308.742L496.648 296.478Z" fill="#F0F2FF"/>
<path d="M335.624 99.3604V104.936C335.632 105.981 335.92 107.005 336.459 107.9C336.998 108.795 337.769 109.529 338.689 110.023L360.586 121.991C337.147 142.49 301.604 142.49 278.166 121.991L300.086 110.035C301.004 109.538 301.771 108.804 302.308 107.91C302.845 107.015 303.132 105.993 303.139 104.949V92.7222" stroke="#00CC6F"/>
<path fill-rule="evenodd" clip-rule="evenodd" d="M295.199 59.4264L294.512 53.3463C294.18 50.7473 294.267 48.1119 294.769 45.5405C295.865 40.4719 298.516 35.872 302.352 32.3825C301.529 30.2708 301.112 28.0227 301.122 25.7563H319.375C331.278 25.7563 341.558 34.0103 344.032 45.5525C344.53 48.1247 344.612 50.7604 344.276 53.3583L343.601 59.4367C344.223 59.1759 344.905 59.095 345.57 59.2034C346.235 59.3118 346.857 59.6051 347.363 60.0497C348.393 60.9563 348.806 62.3695 348.423 63.6813L345.662 73.2867C345.411 74.1641 344.717 74.8492 343.833 75.0982C343.398 75.2202 342.939 75.2297 342.499 75.1258C342.06 75.0219 341.653 74.8079 341.319 74.5041C340.301 78.771 340.67 82.8937 338.498 86.7468C336.815 89.7276 334.457 92.2719 331.611 94.1752C328.766 96.0785 325.514 97.2875 322.117 97.7051C315.211 98.5637 308.303 96.1117 303.514 91.1013C302.248 89.7961 301.156 88.3331 300.264 86.7485C298.081 82.8937 298.449 78.771 297.431 74.5041C296.756 75.1222 295.806 75.3471 294.922 75.0982C294.489 74.9772 294.094 74.7471 293.776 74.4299C293.457 74.1128 293.225 73.7191 293.102 73.2867L290.329 63.6813C290.137 63.0322 290.135 62.3415 290.325 61.6915C290.514 61.0415 290.886 60.4597 291.397 60.0154C291.91 59.5684 292.54 59.2758 293.213 59.1716C293.885 59.0674 294.574 59.1557 295.199 59.4264V59.4264V59.4264Z" stroke="#00CC6F"/>
<path d="M333.84 288.343V290.529C333.825 293.053 335.219 295.391 337.484 296.631L360.586 309.181C337.147 329.642 301.604 329.642 278.166 309.181L301.268 296.559C303.532 295.318 304.927 292.981 304.911 290.455V279.883" stroke="#4353FF"/>
<path d="M298.379 262.515C299.028 268.875 301.761 274.804 306.116 279.294C313.381 286.712 324.901 286.973 332.464 279.886C337.416 275.171 340.5 268.686 341.108 261.711L341.701 250.955L297.057 243.824" stroke="#4353FF"/>
<path d="M352.001 295.337V245.565C352.004 241.277 351.163 237.029 349.524 233.066C347.885 229.102 345.48 225.501 342.449 222.467C339.418 219.435 335.819 217.031 331.858 215.392C327.897 213.753 323.651 212.912 319.364 212.917V212.917C301.352 212.917 286.752 227.529 286.752 245.553V295.324" stroke="#4353FF"/>
<path fill-rule="evenodd" clip-rule="evenodd" d="M319.383 154.536C319.383 154.536 314.146 161.324 303.924 159.909L304.908 177.777C305.167 182.655 307.537 187.126 311.319 189.874L319.383 195.746L327.436 189.874C331.22 187.126 333.595 182.657 333.858 177.777L334.831 159.911C324.645 161.325 319.383 154.538 319.383 154.538V154.536Z" stroke="#03B080"/>
</svg>
