<svg width="37" height="37" viewBox="0 0 37 37" fill="none" xmlns="http://www.w3.org/2000/svg">
<g filter="url(#filter0_d_2685_2841)">
<path d="M18.266 30.655C25.0743 30.655 30.5935 25.1358 30.5935 18.3275C30.5935 11.5192 25.0743 6 18.266 6C11.4577 6 5.93848 11.5192 5.93848 18.3275C5.93848 25.1358 11.4577 30.655 18.266 30.655Z" fill="black"/>
</g>
<path d="M18.266 30.655C25.0743 30.655 30.5935 25.1358 30.5935 18.3275C30.5935 11.5192 25.0743 6 18.266 6C11.4577 6 5.93848 11.5192 5.93848 18.3275C5.93848 25.1358 11.4577 30.655 18.266 30.655Z" fill="white"/>
<mask id="mask0_2685_2841" style="mask-type:alpha" maskUnits="userSpaceOnUse" x="8" y="8" width="21" height="21">
<path d="M27.3314 23.6587C30.1464 18.783 28.4759 12.5485 23.6002 9.73357C18.7245 6.9186 12.49 8.58912 9.67508 13.4648C6.86011 18.3405 8.53063 24.575 13.4063 27.3899C18.282 30.2049 24.5165 28.5344 27.3314 23.6587Z" fill="white"/>
</mask>
<g mask="url(#mask0_2685_2841)">
<path d="M27.3314 23.6587C30.1464 18.783 28.4759 12.5485 23.6002 9.73357C18.7245 6.9186 12.49 8.58912 9.67508 13.4648C6.86011 18.3405 8.53063 24.575 13.4063 27.3899C18.282 30.2049 24.5165 28.5344 27.3314 23.6587Z" fill="white"/>
<g style="mix-blend-mode:multiply">
<path d="M26.9121 26.1176C30.5879 22.4329 30.0083 11.9763 25.8393 10.2066C21.6703 8.43701 16.9775 3.43299 15.1851 7.6557C13.3927 11.8784 14.2696 18.0284 18.4386 19.798C22.6076 21.5676 23.2362 29.8023 26.9121 26.1176Z" fill="#FFD740"/>
</g>
<g style="mix-blend-mode:multiply">
<path d="M29.6556 19.9623C29.775 20.2188 29.2957 22.5505 29.2031 22.8196C28.1425 26.1395 26.9137 28.1689 25.5165 28.9077C23.4208 30.0159 15.8069 30.8077 13.0934 30.2785C10.3799 29.7492 6.67947 29.6074 8.74236 24.1277C10.8053 18.648 18.765 15.3006 20.2745 17.8363C22.6273 21.7889 29.4032 19.4201 29.6556 19.9623Z" fill="#FF4081"/>
</g>
<g style="mix-blend-mode:multiply">
<path d="M20.3163 6.93542C22.7818 7.37014 17.7172 9.20871 18.6046 12.5205C19.492 15.8323 18.0798 19.5044 15.0108 22.9234C13.6312 24.5499 10.8555 24.0648 8.5827 23.6641C7.38843 21.0389 7.06004 18.3075 7.59754 15.4699C9.01994 10.2544 17.8509 6.5007 20.3163 6.93542Z" fill="#40C4FF"/>
</g>
</g>
<defs>
<filter id="filter0_d_2685_2841" x="0.480143" y="0.541666" width="35.5719" height="35.571" filterUnits="userSpaceOnUse" color-interpolation-filters="sRGB">
<feFlood flood-opacity="0" result="BackgroundImageFix"/>
<feColorMatrix in="SourceAlpha" type="matrix" values="0 0 0 0 0 0 0 0 0 0 0 0 0 0 0 0 0 0 127 0" result="hardAlpha"/>
<feOffset/>
<feGaussianBlur stdDeviation="2.72917"/>
<feColorMatrix type="matrix" values="0 0 0 0 0 0 0 0 0 0 0 0 0 0 0 0 0 0 0.15 0"/>
<feBlend mode="normal" in2="BackgroundImageFix" result="effect1_dropShadow_2685_2841"/>
<feBlend mode="normal" in="SourceGraphic" in2="effect1_dropShadow_2685_2841" result="shape"/>
</filter>
</defs>
</svg>
