<svg width="582" height="321" viewBox="0 0 582 321" fill="none" xmlns="http://www.w3.org/2000/svg">
<path d="M229.706 83.9685V67.6951C228.823 54.9078 218.277 44.817 205.221 44.2683H166.271C152.335 44.7076 141.342 56.0395 141.586 69.7101C141.828 83.3823 153.22 94.3297 167.162 94.2922H238.503L229.706 83.9685Z" fill="#EBECED"/>
<path d="M391.825 175.889V191.14C392.625 203.142 402.174 212.606 413.981 213.099H449.166C461.754 212.667 471.669 202.021 471.424 189.201C471.18 176.38 460.866 166.134 448.271 166.201H383.887L391.825 175.889Z" fill="#FFEEAA"/>
<path d="M238.225 186.438V198.623C237.584 208.235 229.733 215.823 220.016 216.225H191.077C180.765 215.837 172.662 207.346 172.853 197.127C173.044 186.908 181.455 178.718 191.774 178.707H244.759L238.225 186.438Z" fill="#EBECED"/>
<path d="M273.39 192.561V208.501C273.393 210.737 272.805 212.934 271.686 214.869C270.567 216.805 268.957 218.41 267.018 219.524L221.309 245.45C270.212 289.856 344.363 289.856 393.266 245.45L347.544 219.538C345.605 218.424 343.994 216.818 342.875 214.883C341.756 212.947 341.169 210.75 341.172 208.514V181.834" stroke="#4353FF"/>
<path fill-rule="evenodd" clip-rule="evenodd" d="M359.096 114.226L360.553 100.923C361.264 95.2924 361.084 89.5866 360.018 84.0136C357.698 73.038 352.022 63.0556 343.776 55.45C345.576 50.8939 346.504 46.0404 346.513 41.1416H307.244C281.77 41.1463 259.768 59.0361 254.469 84.0527C253.405 89.6263 253.225 95.3329 253.938 100.962L255.405 114.266C254.075 113.698 252.611 113.52 251.184 113.753C249.757 113.985 248.425 114.618 247.344 115.579C246.26 116.542 245.47 117.792 245.064 119.185C244.659 120.578 244.656 122.056 245.054 123.451L250.985 144.305C251.245 145.247 251.746 146.107 252.436 146.799C253.127 147.492 253.985 147.994 254.927 148.257C255.868 148.518 256.861 148.532 257.809 148.295C258.757 148.058 259.627 147.58 260.334 146.906C262.512 156.159 261.669 165.102 266.384 173.456C274.71 188.29 290.352 197.466 307.31 197.466C324.27 197.466 339.911 188.29 348.236 173.456C352.885 165.102 352.123 156.159 354.287 146.906C354.994 147.567 355.859 148.035 356.799 148.264C357.74 148.494 358.723 148.477 359.655 148.216C360.588 147.954 361.438 147.456 362.124 146.771C362.81 146.086 363.308 145.236 363.571 144.303L369.501 123.451C369.916 122.048 369.923 120.555 369.521 119.148C369.119 117.741 368.325 116.477 367.231 115.505C366.139 114.536 364.793 113.9 363.351 113.673C361.909 113.446 360.432 113.638 359.096 114.225V114.226Z" stroke="#4353FF"/>
<path d="M201.262 141.049V118.672C200.031 101.081 185.426 87.209 167.363 86.4758H113.5C94.0856 86.9167 78.6907 102.582 79.0612 121.518C79.4302 140.453 95.4253 155.534 114.842 155.254H213.493L201.262 141.049Z" fill="#F0F2FF"/>
<path d="M213.494 155.254H114.844C95.4268 155.535 79.4317 140.453 79.0612 121.518C78.6923 102.582 94.0871 86.9167 113.501 86.4758H167.417C185.482 87.2106 200.088 101.081 201.318 118.672" stroke="#4353FF"/>
<path d="M112.16 130.247C116.276 130.247 119.146 127.634 119.146 123.636C119.146 119.677 116.276 117.046 112.139 117.046H106.934V130.247H112.16ZM112.139 127.772H109.744V119.52H112.16C114.851 119.52 116.276 121.32 116.276 123.636C116.276 125.893 114.751 127.772 112.139 127.772ZM130.485 130.247V127.772H123.954V124.764H130.348V122.291H123.954V119.52H130.485V117.046H121.144V130.247H130.485ZM137.392 130.484C140.934 130.484 142.676 128.663 142.676 126.248C142.676 121.32 135.097 122.726 135.097 120.648C135.097 119.856 135.769 119.341 136.957 119.341C138.302 119.341 139.727 119.796 140.797 120.786L142.36 118.688C141.053 117.481 139.312 116.848 137.214 116.848C134.107 116.848 132.207 118.669 132.207 120.866C132.207 125.833 139.807 124.23 139.807 126.524C139.807 127.297 139.074 127.991 137.511 127.991C136.726 127.99 135.949 127.83 135.228 127.521C134.507 127.211 133.856 126.758 133.315 126.19L131.772 128.386C133.018 129.632 134.839 130.484 137.392 130.484ZM147.365 130.247V117.046H144.556V130.247H147.367H147.365ZM156.392 130.484C158.768 130.484 160.647 129.515 161.993 128.01V122.945H155.699V125.399H159.182V126.981C158.647 127.475 157.559 127.991 156.392 127.991C153.976 127.991 152.235 126.149 152.235 123.656C152.235 121.163 153.976 119.323 156.392 119.323C157.777 119.323 158.905 120.114 159.518 121.042L161.833 119.776C160.844 118.213 159.123 116.828 156.392 116.828C152.513 116.828 149.346 119.48 149.346 123.656C149.346 127.813 152.513 130.484 156.392 130.484ZM167.039 130.247V121.636L173.332 130.245H176.043V117.045H173.234V125.336L167.119 117.045H164.228V130.245H167.039V130.247Z" fill="black"/>
<path d="M112.16 130.247C116.276 130.247 119.146 127.634 119.146 123.636C119.146 119.677 116.276 117.046 112.139 117.046H106.934V130.247H112.16ZM112.139 127.772H109.744V119.52H112.16C114.851 119.52 116.276 121.32 116.276 123.636C116.276 125.893 114.751 127.772 112.139 127.772ZM130.485 130.247V127.772H123.954V124.764H130.348V122.291H123.954V119.52H130.485V117.046H121.144V130.247H130.485ZM137.392 130.484C140.934 130.484 142.676 128.663 142.676 126.248C142.676 121.32 135.097 122.726 135.097 120.648C135.097 119.856 135.769 119.341 136.957 119.341C138.302 119.341 139.727 119.796 140.797 120.786L142.36 118.688C141.053 117.481 139.312 116.848 137.214 116.848C134.107 116.848 132.207 118.669 132.207 120.866C132.207 125.833 139.807 124.23 139.807 126.524C139.807 127.297 139.074 127.991 137.511 127.991C136.726 127.99 135.949 127.83 135.228 127.521C134.507 127.211 133.856 126.758 133.315 126.19L131.772 128.386C133.018 129.632 134.839 130.484 137.392 130.484ZM147.365 130.247V117.046H144.556V130.247H147.367H147.365ZM156.392 130.484C158.768 130.484 160.647 129.515 161.993 128.01V122.945H155.699V125.399H159.182V126.981C158.647 127.475 157.559 127.991 156.392 127.991C153.976 127.991 152.235 126.149 152.235 123.656C152.235 121.163 153.976 119.323 156.392 119.323C157.777 119.323 158.905 120.114 159.518 121.042L161.833 119.776C160.844 118.213 159.123 116.828 156.392 116.828C152.513 116.828 149.346 119.48 149.346 123.656C149.346 127.813 152.513 130.484 156.392 130.484ZM167.039 130.247V121.636L173.332 130.245H176.043V117.045H173.234V125.336L167.119 117.045H164.228V130.245H167.039V130.247Z" fill="#4353FF"/>
<path d="M499.498 118.674C498.282 101.077 483.855 87.2027 466.013 86.4758H438.761C420.92 87.2027 406.493 101.077 405.276 118.674V141.052L393.268 155.259H464.742C474.362 155.259 483.554 151.329 490.139 144.399C493.389 140.988 495.898 136.942 497.509 132.515C499.119 128.088 499.797 123.376 499.498 118.674Z" fill="#D9FFEE"/>
<path d="M393.268 155.254H464.402C483.481 155.535 499.199 140.453 499.562 121.518C499.925 102.582 484.797 86.9167 465.719 86.4758H438.544C420.788 87.2027 406.43 101.077 405.22 118.672" stroke="#00CC6F"/>
<path d="M438.878 130.246C442.994 130.246 445.864 127.634 445.864 123.635C445.864 119.677 442.994 117.046 438.858 117.046H433.652V130.246H438.878ZM438.858 127.772H436.463V119.519H438.878C441.57 119.519 442.994 121.32 442.994 123.635C442.994 125.893 441.47 127.772 438.858 127.772ZM457.204 130.246V127.772H450.673V124.764H457.067V122.291H450.673V119.519H457.204V117.046H447.862V130.246H457.204ZM466.624 130.246L471.711 117.046H468.524L464.863 127.179L461.201 117.046H458.016L463.102 130.246H466.624Z" fill="black"/>
<path d="M438.878 130.246C442.994 130.246 445.864 127.634 445.864 123.635C445.864 119.677 442.994 117.046 438.858 117.046H433.652V130.246H438.878ZM438.858 127.772H436.463V119.519H438.878C441.57 119.519 442.994 121.32 442.994 123.635C442.994 125.893 441.47 127.772 438.858 127.772ZM457.204 130.246V127.772H450.673V124.764H457.067V122.291H450.673V119.519H457.204V117.046H447.862V130.246H457.204ZM466.624 130.246L471.711 117.046H468.524L464.863 127.179L461.201 117.046H458.016L463.102 130.246H466.624Z" fill="#00CC6F"/>
</svg>
