<svg width="271" height="302" viewBox="0 0 271 302" fill="none" xmlns="http://www.w3.org/2000/svg">
<path d="M37.1727 294.629H5.89258V301.29H37.1727V294.629Z" fill="#4353FF"/>
<path d="M83.7977 294.629H52.5176V301.29H83.7977V294.629Z" fill="#4353FF"/>
<path d="M130.423 294.629H99.1426V301.29H130.423V294.629Z" fill="#4353FF"/>
<path d="M177.05 294.629H145.77V301.29H177.05V294.629Z" fill="#4353FF"/>
<path d="M223.675 294.629H192.395V301.29H223.675V294.629Z" fill="#4353FF"/>
<path d="M270.298 294.629H239.018V301.29H270.298V294.629Z" fill="#4353FF"/>
<path d="M9.28377 285.007H33.7811C35.6542 285.007 37.1723 283.49 37.1723 281.618V248.642C37.1723 246.77 35.6542 245.252 33.7811 245.252H9.28377C7.41068 245.252 5.89258 246.77 5.89258 248.642V281.618C5.89258 283.49 7.41111 285.007 9.28377 285.007Z" stroke="#4353FF" stroke-width="1.3"/>
<path d="M55.9088 285.007H80.4063C82.2794 285.007 83.7974 283.49 83.7974 281.618V222.214C83.7974 220.341 82.2794 218.824 80.4063 218.824H55.9088C54.0357 218.824 52.5176 220.341 52.5176 222.214V281.618C52.5176 283.49 54.0361 285.007 55.9088 285.007Z" stroke="#4353FF" stroke-width="1.3"/>
<path d="M102.536 285.007H127.033C128.906 285.007 130.424 283.49 130.424 281.618V199.096C130.424 197.224 128.906 195.706 127.033 195.706H102.536C100.663 195.706 99.1445 197.224 99.1445 199.096V281.618C99.1445 283.49 100.663 285.007 102.536 285.007Z" stroke="#4353FF" stroke-width="1.3"/>
<path d="M149.161 285.007H173.658C175.531 285.007 177.049 283.49 177.049 281.618V171.956C177.049 170.084 175.531 168.567 173.658 168.567H149.161C147.288 168.567 145.77 170.084 145.77 171.956V281.618C145.77 283.49 147.288 285.007 149.161 285.007Z" stroke="#4353FF" stroke-width="1.3"/>
<path d="M195.786 285.007H220.283C222.156 285.007 223.674 283.49 223.674 281.618V150.449C223.674 148.577 222.156 147.06 220.283 147.06H195.786C193.913 147.06 192.395 148.578 192.395 150.449V281.618C192.395 283.49 193.913 285.007 195.786 285.007Z" stroke="#4353FF" stroke-width="1.3"/>
<path d="M242.409 285.007H266.907C268.78 285.007 270.298 283.489 270.298 281.617V117.053C270.298 115.181 268.78 113.663 266.907 113.663H242.409C240.536 113.663 239.018 115.181 239.018 117.053V281.617C239.018 283.489 240.536 285.007 242.409 285.007Z" stroke="#4353FF" stroke-width="1.3"/>
<path d="M73.533 48.0747V119.033C72.9244 123.801 68.5406 133.469 43.0724 133.469H0.724609V48.0747H73.533Z" stroke="#5967FF"/>
<path d="M0.724609 48.0745H73.533V43.1515C73.533 40.7442 71.581 38.793 69.1724 38.793H5.08583C2.6773 38.793 0.725059 40.7442 0.725059 43.1515V48.0745H0.724609Z" stroke="#5764FB"/>
<path d="M73.5327 119.034C72.924 123.801 68.5405 133.469 43.0723 133.469C43.0723 133.469 65.3604 129.593 62.3888 116.309C62.3888 116.309 73.5327 119.821 73.5327 116.435C73.5327 116.435 73.7341 117.467 73.5327 119.034Z" stroke="#5967FF"/>
<path d="M14.7311 68.1659C18.3214 68.1659 21.2318 65.257 21.2318 61.6687C21.2318 58.0803 18.3214 55.1714 14.7311 55.1714C11.1409 55.1714 8.23047 58.0803 8.23047 61.6687C8.23047 65.257 11.1409 68.1659 14.7311 68.1659Z" stroke="#5967FF"/>
<path d="M14.7854 65.5794C14.5 65.5794 14.2151 65.4705 13.9976 65.2531L10.1352 61.3926C9.69972 60.9579 9.69972 60.2523 10.1352 59.8175C10.5707 59.3822 11.2757 59.3822 11.7112 59.8175L14.7858 62.8905L21.8536 55.8265C22.2891 55.3912 22.9941 55.3912 23.4296 55.8265C23.865 56.2612 23.865 56.9669 23.4296 57.4016L15.574 65.2531C15.3557 65.4705 15.0703 65.5794 14.7854 65.5794Z" stroke="#FFEEAA"/>
<path d="M14.7311 88.2574C18.3214 88.2574 21.2318 85.3482 21.2318 81.7597C21.2318 78.1719 18.3214 75.2627 14.7311 75.2627C11.1409 75.2627 8.23047 78.1719 8.23047 81.7597C8.23047 85.3482 11.1409 88.2574 14.7311 88.2574Z" stroke="#5967FF"/>
<path d="M14.7854 85.6708C14.5 85.6708 14.2151 85.5615 13.9976 85.3442L10.1352 81.4841C9.69972 81.0489 9.69972 80.3435 10.1352 79.9089C10.5707 79.4737 11.2757 79.4737 11.7112 79.9089L14.7858 82.9818L21.8536 75.9178C22.2891 75.4825 22.9941 75.4825 23.4296 75.9178C23.865 76.3523 23.865 77.0577 23.4296 77.4929L15.574 85.3442C15.3557 85.5615 15.0703 85.6708 14.7854 85.6708Z" stroke="#FFEEAA"/>
<path d="M14.7311 108.348C18.3214 108.348 21.2318 105.439 21.2318 101.851C21.2318 98.2622 18.3214 95.353 14.7311 95.353C11.1409 95.353 8.23047 98.2622 8.23047 101.851C8.23047 105.439 11.1409 108.348 14.7311 108.348Z" stroke="#5967FF"/>
<path d="M14.7854 105.762C14.5 105.762 14.2151 105.653 13.9976 105.435L10.1352 101.575C9.69972 101.14 9.69972 100.434 10.1352 99.9998C10.5707 99.5645 11.2757 99.5645 11.7112 99.9998L14.7858 103.073L21.8536 96.0086C22.2891 95.5733 22.9941 95.5733 23.4296 96.0086C23.865 96.4438 23.865 97.1492 23.4296 97.5838L15.574 105.435C15.3557 105.653 15.0703 105.762 14.7854 105.762Z" stroke="#FFEEAA"/>
<path d="M64.6178 62.0395H31.5568C31.3515 62.0395 31.1855 61.8736 31.1855 61.6684C31.1855 61.4632 31.3515 61.2974 31.5568 61.2974H64.6178C64.8231 61.2974 64.9891 61.4632 64.9891 61.6684C64.9891 61.8736 64.8231 62.0395 64.6178 62.0395Z" stroke="#F0F2FF"/>
<path d="M64.6178 82.131H31.5568C31.3515 82.131 31.1855 81.9652 31.1855 81.7595C31.1855 81.5545 31.3515 81.3887 31.5568 81.3887H64.6178C64.8231 81.3887 64.9891 81.5545 64.9891 81.7595C64.9891 81.9652 64.8231 82.131 64.6178 82.131Z" stroke="#F0F2FF"/>
<path d="M64.6178 102.222H31.5568C31.3515 102.222 31.1855 102.056 31.1855 101.851C31.1855 101.646 31.3515 101.48 31.5568 101.48H64.6178C64.8231 101.48 64.9891 101.646 64.9891 101.851C64.9891 102.056 64.8231 102.222 64.6178 102.222Z" stroke="#F0F2FF"/>
<path d="M266.452 40.4116L260.191 1.657C260.076 0.941953 259.316 0.527936 258.653 0.817206L222.897 16.3858C222.052 16.7533 221.997 17.9285 222.803 18.3732L236.954 26.1821C222.255 51.4418 202.626 75.5173 178.492 97.8624C156.883 117.868 131.643 136.537 103.472 153.349C55.31 182.093 14.7878 195.584 14.3862 195.716C10.3605 197.039 8.16998 201.372 9.49317 205.395C10.555 208.625 13.5564 210.672 16.7808 210.672C17.5748 210.672 18.3825 210.547 19.1779 210.286C20.8806 209.726 61.4431 196.247 111.011 166.713C140.159 149.346 166.315 130.018 188.753 109.267C214.177 85.7563 234.873 60.3401 250.392 33.597L264.82 41.5587C265.63 42.0057 266.599 41.3241 266.452 40.4116Z" stroke="#00CC6F" stroke-width="1.3"/>
</svg>
