<svg width="662" height="491" viewBox="0 0 662 491" fill="none" xmlns="http://www.w3.org/2000/svg">
<g clip-path="url(#clip0_5648_26559)">
<path d="M637.376 421.717C635.565 421.717 633.738 421.248 632.123 420.311L614.398 410.061C613.372 409.472 612.753 408.398 612.753 407.219C612.753 406.04 613.372 404.967 614.398 404.377L632.123 394.127C635.368 392.253 639.399 392.253 642.63 394.127L660.354 404.377C661.381 404.967 662 406.04 662 407.219C662 408.398 661.381 409.472 660.354 410.061L642.63 420.311C641.015 421.248 639.188 421.717 637.376 421.717ZM637.376 395.533C636.048 395.533 634.719 395.881 633.527 396.561L615.802 406.811C615.591 406.932 615.561 407.113 615.561 407.219C615.561 407.325 615.591 407.506 615.802 407.627L633.527 417.877C635.897 419.253 638.856 419.253 641.226 417.877L658.95 407.627C659.162 407.506 659.192 407.325 659.192 407.219C659.192 407.113 659.162 406.932 658.95 406.811L641.226 396.561C640.033 395.881 638.705 395.533 637.376 395.533Z" fill="url(#paint0_linear_5648_26559)"/>
<path d="M586.695 363.59C583.736 363.59 580.792 362.834 578.15 361.307L547.653 343.68C546.204 342.849 545.328 341.337 545.328 339.659C545.328 337.981 546.189 336.484 547.653 335.638L578.15 318.011C583.419 314.972 589.956 314.957 595.225 318.011L625.721 335.638C627.171 336.469 628.046 337.981 628.046 339.659C628.046 341.337 627.186 342.834 625.736 343.68L595.24 361.307C592.613 362.834 589.654 363.59 586.695 363.59ZM579.554 358.873C583.962 361.413 589.427 361.413 593.821 358.873L624.317 341.246C625.133 340.763 625.223 339.977 625.223 339.659C625.223 339.342 625.133 338.556 624.317 338.072L593.821 320.445C589.412 317.905 583.947 317.905 579.554 320.445L549.057 338.072C548.242 338.556 548.152 339.342 548.152 339.659C548.152 339.977 548.242 340.763 549.057 341.246L579.554 358.873Z" fill="url(#paint1_linear_5648_26559)"/>
<path d="M41.3514 391.331C38.3923 391.331 35.4484 390.575 32.8064 389.048L2.32498 371.421C0.875641 370.574 0 369.078 0 367.4C0 365.722 0.860544 364.225 2.32498 363.378L32.8215 345.751C38.0904 342.698 44.6275 342.698 49.8965 345.751L80.3929 363.378C81.8423 364.21 82.7179 365.722 82.7179 367.4C82.7179 369.078 81.8574 370.574 80.3929 371.421L49.8965 389.048C47.2695 390.575 44.3105 391.331 41.3514 391.331ZM41.3514 346.281C38.8906 346.281 36.4146 346.916 34.2104 348.185L3.71393 365.812C2.89867 366.296 2.80809 367.082 2.80809 367.4C2.80809 367.717 2.89867 368.503 3.71393 368.987L34.2104 386.614C38.6188 389.154 44.084 389.154 48.4773 386.614L78.9738 368.987C79.8041 368.503 79.8796 367.717 79.8796 367.4C79.8796 367.082 79.789 366.296 78.9738 365.812L48.4773 348.185C46.2731 346.916 43.8123 346.281 41.3363 346.281H41.3514Z" fill="url(#paint2_linear_5648_26559)"/>
<path opacity="0.6" d="M350.166 468.233L132.101 342.184C128.916 340.339 129.323 337.135 132.992 335.018L272.943 254.109C276.612 251.993 282.168 251.751 285.338 253.595L503.388 379.66C506.574 381.504 506.166 384.709 502.497 386.826L362.546 467.734C358.877 469.851 353.321 470.093 350.151 468.248L350.166 468.233Z" fill="#020230"/>
<path d="M355.148 491C352.597 491 350.151 490.471 348.294 489.382L99.4307 345.51C97.3926 344.33 96.2754 342.637 96.2754 340.732C96.2754 338.54 97.8002 336.409 100.442 334.882L270.075 235.364C274.725 232.673 281.564 232.416 285.64 234.774L534.504 378.647C536.542 379.826 537.659 381.519 537.659 383.424C537.659 385.616 536.134 387.733 533.492 389.275L363.859 488.793C361.338 490.244 358.168 491 355.163 491H355.148ZM278.816 235.999C276.265 235.999 273.563 236.619 271.494 237.813L101.861 337.331C100.125 338.344 99.0986 339.614 99.0986 340.748C99.0986 341.881 100.05 342.622 100.85 343.076L349.713 486.949C352.884 488.793 358.726 488.521 362.455 486.359L532.088 386.841C533.824 385.828 534.851 384.558 534.851 383.424C534.851 382.29 533.9 381.55 533.1 381.096L284.236 237.223C282.817 236.407 280.87 235.999 278.816 235.999Z" fill="url(#paint3_linear_5648_26559)"/>
<path d="M561.316 168.303L344.127 42.7522C342.633 41.8905 341.078 41.7091 339.689 42.1173C339.689 42.1173 339.689 42.1173 339.674 42.1173L335.658 43.5232L337.077 43.8558C336.503 44.536 336.05 45.3675 335.748 46.3501L286.637 206.036C285.414 209.997 287.195 214.804 290.623 216.784L507.812 342.35C508.34 342.652 508.869 342.864 509.412 343L508.869 344.179L512.703 342.834C514.273 342.199 515.572 340.793 516.191 338.767L565.302 179.081C566.525 175.121 564.744 170.313 561.316 168.333V168.303Z" fill="url(#paint4_radial_5648_26559)"/>
<path d="M500.022 348.306L500.097 348.397L285.565 224.373C282.41 222.544 276.899 222.771 273.246 224.887L134.638 305.025L130.018 303.256L131.316 309.757C131.482 310.724 132.177 311.646 133.4 312.357L349.91 437.53C353.065 439.359 358.575 439.132 362.229 437.016L501.184 356.681C502.905 355.684 503.887 354.459 504.128 353.25L505.457 346.946L500.007 348.337L500.022 348.306Z" fill="url(#paint5_radial_5648_26559)"/>
<path d="M350.166 431.785L132.101 305.736C128.916 303.891 129.323 300.686 132.992 298.57L272.943 217.661C276.612 215.545 282.168 215.303 285.338 217.147L503.388 343.212C506.574 345.056 506.166 348.261 502.497 350.377L362.546 431.286C358.877 433.402 353.321 433.644 350.151 431.8L350.166 431.785Z" fill="url(#paint6_radial_5648_26559)"/>
<path d="M502.498 348.669L362.546 429.578C358.877 431.694 353.321 431.936 350.151 430.092L132.101 304.027C131.014 303.407 130.38 302.606 130.124 301.76C129.701 303.226 130.32 304.692 132.101 305.72L350.151 431.785C353.337 433.629 358.877 433.387 362.546 431.271L502.498 350.362C504.913 348.956 505.879 347.097 505.366 345.464C505.034 346.598 504.098 347.747 502.498 348.669Z" fill="white"/>
<g opacity="0.4">
<path d="M236.121 285.267L228.754 281.003C228.165 280.656 228.241 280.066 228.92 279.673L237.616 274.654C238.295 274.261 239.337 274.216 239.926 274.563L247.293 278.827C247.882 279.174 247.807 279.764 247.127 280.157L238.431 285.176C237.752 285.569 236.71 285.614 236.121 285.267Z" fill="#06033E"/>
<path d="M247.49 291.843L240.122 287.579C239.533 287.232 239.609 286.642 240.288 286.249L248.984 281.23C249.664 280.837 250.705 280.792 251.294 281.139L258.662 285.403C259.25 285.75 259.175 286.34 258.496 286.733L249.8 291.752C249.12 292.145 248.078 292.19 247.49 291.843Z" fill="#06033E"/>
<path d="M258.858 298.419L251.491 294.156C250.902 293.808 250.977 293.218 251.657 292.825L260.353 287.806C261.032 287.413 262.074 287.368 262.663 287.715L270.03 291.979C270.619 292.326 270.543 292.916 269.864 293.309L261.168 298.328C260.489 298.721 259.447 298.766 258.858 298.419Z" fill="#06033E"/>
<path d="M274.574 292.992L267.207 288.728C266.618 288.381 266.693 287.791 267.373 287.398L274.665 283.18C275.344 282.787 276.386 282.742 276.975 283.09L284.342 287.353C284.931 287.7 284.855 288.29 284.176 288.683L276.884 292.901C276.205 293.294 275.163 293.339 274.574 292.992Z" fill="#06033E"/>
<path d="M285.943 299.568L278.575 295.304C277.986 294.957 278.062 294.367 278.741 293.974L286.033 289.756C286.712 289.363 287.754 289.318 288.343 289.666L295.71 293.929C296.299 294.276 296.224 294.866 295.544 295.259L288.252 299.477C287.573 299.87 286.531 299.915 285.943 299.568Z" fill="#06033E"/>
<path d="M297.311 306.129L289.943 301.865C289.354 301.518 289.43 300.928 290.109 300.535L297.401 296.317C298.081 295.924 299.122 295.879 299.711 296.227L307.079 300.49C307.667 300.837 307.592 301.427 306.913 301.82L299.621 306.038C298.941 306.431 297.899 306.476 297.311 306.129Z" fill="#06033E"/>
<path d="M308.679 312.705L301.311 308.442C300.723 308.094 300.798 307.504 301.477 307.111L308.769 302.893C309.449 302.5 310.491 302.455 311.079 302.803L318.447 307.066C319.036 307.414 318.96 308.003 318.281 308.396L310.989 312.614C310.309 313.007 309.268 313.052 308.679 312.705Z" fill="#06033E"/>
<path d="M320.047 319.281L312.68 315.018C312.091 314.67 312.166 314.08 312.846 313.687L320.138 309.47C320.817 309.076 321.859 309.031 322.448 309.379L329.815 313.642C330.404 313.99 330.329 314.579 329.649 314.972L322.357 319.19C321.678 319.583 320.636 319.628 320.047 319.281Z" fill="#06033E"/>
<path d="M331.415 325.857L324.048 321.594C323.459 321.246 323.535 320.657 324.214 320.263L331.506 316.046C332.185 315.653 333.227 315.607 333.816 315.955L341.183 320.218C341.772 320.566 341.697 321.155 341.017 321.548L333.725 325.766C333.046 326.159 332.004 326.205 331.415 325.857Z" fill="#06033E"/>
<path d="M342.784 332.418L335.416 328.155C334.827 327.807 334.903 327.217 335.582 326.824L342.874 322.607C343.554 322.214 344.595 322.168 345.184 322.516L352.552 326.779C353.14 327.127 353.065 327.716 352.385 328.109L345.093 332.327C344.414 332.72 343.372 332.766 342.784 332.418Z" fill="#06033E"/>
<path d="M354.152 338.994L346.785 334.731C346.196 334.383 346.271 333.794 346.951 333.401L354.243 329.183C354.922 328.79 355.964 328.744 356.552 329.092L363.92 333.355C364.509 333.703 364.433 334.292 363.754 334.686L356.462 338.903C355.783 339.296 354.741 339.342 354.152 338.994Z" fill="#06033E"/>
<path d="M365.52 345.57L358.153 341.307C357.564 340.959 357.639 340.37 358.319 339.977L365.611 335.759C366.29 335.366 367.332 335.32 367.921 335.668L375.288 339.931C375.877 340.279 375.801 340.869 375.122 341.262L367.83 345.479C367.151 345.872 366.109 345.918 365.52 345.57Z" fill="#06033E"/>
<path d="M376.888 352.146L369.521 347.883C368.932 347.535 369.008 346.946 369.687 346.553L376.979 342.335C377.658 341.942 378.7 341.896 379.289 342.244L386.656 346.507C387.245 346.855 387.17 347.445 386.49 347.838L379.198 352.055C378.519 352.448 377.477 352.494 376.888 352.146Z" fill="#06033E"/>
<path d="M291.332 289.877L283.965 285.614C283.376 285.266 283.451 284.677 284.131 284.284L291.423 280.066C292.102 279.673 293.144 279.628 293.733 279.975L301.1 284.239C301.689 284.586 301.613 285.176 300.934 285.569L293.642 289.787C292.963 290.18 291.921 290.225 291.332 289.877Z" fill="#06033E"/>
<path d="M279.783 283.211L272.415 278.947C271.827 278.6 271.902 278.01 272.581 277.617L279.873 273.399C280.553 273.006 281.595 272.961 282.183 273.309L289.551 277.572C290.14 277.919 290.064 278.509 289.385 278.902L282.093 283.12C281.413 283.513 280.372 283.558 279.783 283.211Z" fill="#06033E"/>
<path d="M268.233 276.529L252.381 267.367C251.792 267.02 251.868 266.43 252.547 266.037L259.839 261.819C260.519 261.426 261.56 261.381 262.149 261.729L278.001 270.89C278.59 271.238 278.515 271.827 277.835 272.22L270.543 276.438C269.864 276.831 268.822 276.876 268.233 276.529Z" fill="#06033E"/>
<path d="M276.31 268.395L263.448 260.958C262.859 260.61 262.934 260.02 263.614 259.627L270.906 255.409C271.585 255.016 272.627 254.971 273.216 255.319L286.078 262.757C286.667 263.104 286.592 263.694 285.912 264.087L278.62 268.305C277.941 268.698 276.899 268.743 276.31 268.395Z" fill="#06033E"/>
<path d="M302.7 296.453L295.333 292.19C294.744 291.843 294.82 291.253 295.499 290.86L302.791 286.642C303.47 286.249 304.512 286.204 305.101 286.551L312.468 290.815C313.057 291.162 312.982 291.752 312.302 292.145L305.01 296.363C304.331 296.756 303.289 296.801 302.7 296.453Z" fill="#06033E"/>
<path d="M314.069 303.03L306.701 298.766C306.112 298.419 306.188 297.829 306.867 297.436L314.159 293.218C314.839 292.825 315.88 292.78 316.469 293.128L323.837 297.391C324.425 297.738 324.35 298.328 323.671 298.721L316.379 302.939C315.699 303.332 314.658 303.377 314.069 303.03Z" fill="#06033E"/>
<path d="M325.437 309.59L318.069 305.327C317.481 304.98 317.556 304.39 318.236 303.997L325.527 299.779C326.207 299.386 327.249 299.341 327.837 299.689L335.205 303.952C335.794 304.299 335.718 304.889 335.039 305.282L327.747 309.5C327.067 309.893 326.026 309.938 325.437 309.59Z" fill="#06033E"/>
<path d="M336.805 316.167L329.438 311.904C328.849 311.556 328.924 310.966 329.604 310.573L336.896 306.355C337.575 305.962 338.617 305.917 339.206 306.265L346.573 310.528C347.162 310.876 347.086 311.465 346.407 311.858L339.115 316.076C338.436 316.469 337.394 316.514 336.805 316.167Z" fill="#06033E"/>
<path d="M348.173 322.743L340.806 318.48C340.217 318.132 340.293 317.542 340.972 317.149L348.264 312.931C348.943 312.538 349.985 312.493 350.574 312.841L357.941 317.104C358.53 317.452 358.455 318.041 357.775 318.434L350.483 322.652C349.804 323.045 348.762 323.09 348.173 322.743Z" fill="#06033E"/>
<path d="M359.542 329.319L352.174 325.056C351.585 324.708 351.661 324.118 352.34 323.725L359.632 319.508C360.312 319.115 361.353 319.069 361.942 319.417L369.31 323.68C369.898 324.028 369.823 324.617 369.143 325.01L361.852 329.228C361.172 329.621 360.13 329.667 359.542 329.319Z" fill="#06033E"/>
<path d="M370.91 335.88L363.542 331.617C362.954 331.269 363.029 330.679 363.708 330.286L371 326.069C371.68 325.675 372.721 325.63 373.31 325.978L380.678 330.241C381.267 330.589 381.191 331.178 380.512 331.571L373.22 335.789C372.54 336.182 371.499 336.227 370.91 335.88Z" fill="#06033E"/>
<path d="M382.278 342.456L374.911 338.193C374.322 337.845 374.397 337.255 375.077 336.862L382.369 332.645C383.048 332.252 384.09 332.206 384.678 332.554L392.046 336.817C392.635 337.165 392.559 337.754 391.88 338.147L384.588 342.365C383.908 342.758 382.867 342.804 382.278 342.456Z" fill="#06033E"/>
<path d="M393.646 349.032L386.279 344.769C385.69 344.421 385.766 343.832 386.445 343.438L393.737 339.221C394.416 338.828 395.458 338.782 396.047 339.13L403.414 343.393C404.003 343.741 403.928 344.33 403.248 344.723L395.956 348.941C395.277 349.334 394.235 349.38 393.646 349.032Z" fill="#06033E"/>
<path d="M413.861 360.718L397.798 351.436C397.209 351.088 397.285 350.498 397.964 350.105L405.256 345.887C405.935 345.494 406.977 345.449 407.566 345.797L423.629 355.079C424.218 355.427 424.143 356.016 423.463 356.409L416.171 360.627C415.492 361.02 414.45 361.065 413.861 360.718Z" fill="#06033E"/>
<path d="M435.994 347.913L422.437 340.082C421.848 339.735 421.924 339.145 422.603 338.752L429.895 334.534C430.574 334.141 431.616 334.096 432.205 334.444L445.762 342.274C446.351 342.622 446.275 343.212 445.596 343.605L438.304 347.823C437.625 348.216 436.583 348.261 435.994 347.913Z" fill="#06033E"/>
<path d="M322.599 295.168L315.231 290.905C314.642 290.558 314.718 289.968 315.397 289.575L322.689 285.357C323.368 284.964 324.41 284.919 324.999 285.267L332.366 289.53C332.955 289.877 332.88 290.467 332.2 290.86L324.908 295.078C324.229 295.471 323.187 295.516 322.599 295.168Z" fill="#06033E"/>
<path d="M310.959 288.426L303.591 284.163C303.002 283.815 303.078 283.226 303.757 282.833L311.049 278.615C311.729 278.222 312.77 278.176 313.359 278.524L320.727 282.787C321.315 283.135 321.24 283.724 320.561 284.118L313.269 288.335C312.589 288.728 311.547 288.774 310.959 288.426Z" fill="#06033E"/>
<path d="M299.304 281.699L291.936 277.436C291.347 277.088 291.423 276.498 292.102 276.105L299.394 271.888C300.074 271.495 301.115 271.449 301.704 271.797L309.072 276.06C309.66 276.408 309.585 276.997 308.905 277.39L301.613 281.608C300.934 282.001 299.892 282.047 299.304 281.699Z" fill="#06033E"/>
<path d="M287.648 274.956L280.281 270.693C279.692 270.346 279.768 269.756 280.447 269.363L287.739 265.145C288.418 264.752 289.46 264.707 290.049 265.054L297.416 269.318C298.005 269.665 297.93 270.255 297.25 270.648L289.958 274.866C289.279 275.259 288.237 275.304 287.648 274.956Z" fill="#06033E"/>
<path d="M333.967 301.745L326.599 297.481C326.011 297.134 326.086 296.544 326.766 296.151L334.058 291.933C334.737 291.54 335.779 291.495 336.367 291.843L343.735 296.106C344.324 296.453 344.248 297.043 343.569 297.436L336.277 301.654C335.597 302.047 334.556 302.092 333.967 301.745Z" fill="#06033E"/>
<path d="M345.335 308.306L337.968 304.042C337.379 303.695 337.454 303.105 338.134 302.712L345.426 298.494C346.105 298.101 347.147 298.056 347.736 298.404L355.103 302.667C355.692 303.014 355.616 303.604 354.937 303.997L347.645 308.215C346.966 308.608 345.924 308.653 345.335 308.306Z" fill="#06033E"/>
<path d="M356.718 314.882L349.351 310.618C348.762 310.271 348.838 309.681 349.517 309.288L356.809 305.07C357.488 304.677 358.53 304.632 359.119 304.98L366.486 309.243C367.075 309.59 367 310.18 366.32 310.573L359.028 314.791C358.349 315.184 357.307 315.229 356.718 314.882Z" fill="#06033E"/>
<path d="M368.087 321.458L360.719 317.195C360.13 316.847 360.206 316.257 360.885 315.864L368.177 311.646C368.857 311.253 369.898 311.208 370.487 311.556L377.855 315.819C378.443 316.167 378.368 316.756 377.688 317.149L370.396 321.367C369.717 321.76 368.675 321.805 368.087 321.458Z" fill="#06033E"/>
<path d="M379.455 328.034L372.088 323.771C371.499 323.423 371.574 322.833 372.254 322.44L379.546 318.223C380.225 317.83 381.267 317.784 381.855 318.132L389.223 322.395C389.812 322.743 389.736 323.332 389.057 323.725L381.765 327.943C381.085 328.336 380.044 328.382 379.455 328.034Z" fill="#06033E"/>
<path d="M390.823 334.595L383.456 330.332C382.867 329.984 382.942 329.394 383.622 329.001L390.914 324.783C391.593 324.39 392.635 324.345 393.224 324.693L400.591 328.956C401.18 329.304 401.104 329.893 400.425 330.286L393.133 334.504C392.454 334.897 391.412 334.942 390.823 334.595Z" fill="#06033E"/>
<path d="M402.191 341.171L394.824 336.908C394.235 336.56 394.311 335.97 394.99 335.577L402.282 331.36C402.961 330.967 404.003 330.921 404.592 331.269L411.959 335.532C412.548 335.88 412.473 336.469 411.793 336.862L404.501 341.08C403.822 341.473 402.78 341.519 402.191 341.171Z" fill="#06033E"/>
<path d="M413.56 347.747L406.192 343.484C405.603 343.136 405.679 342.547 406.358 342.153L413.65 337.936C414.33 337.543 415.371 337.497 415.96 337.845L423.328 342.108C423.916 342.456 423.841 343.045 423.162 343.438L415.87 347.656C415.19 348.049 414.149 348.095 413.56 347.747Z" fill="#06033E"/>
<path d="M424.928 354.323L417.56 350.06C416.972 349.712 417.047 349.123 417.726 348.73L425.018 344.512C425.698 344.119 426.74 344.073 427.328 344.421L434.696 348.684C435.285 349.032 435.209 349.621 434.53 350.015L427.238 354.232C426.558 354.625 425.517 354.671 424.928 354.323Z" fill="#06033E"/>
<path d="M316.62 278.902L309.253 274.639C308.664 274.291 308.739 273.702 309.419 273.309L316.711 269.091C317.39 268.698 318.432 268.652 319.02 269L326.388 273.263C326.977 273.611 326.901 274.201 326.222 274.594L318.93 278.811C318.251 279.204 317.209 279.25 316.62 278.902Z" fill="#06033E"/>
<path d="M305.312 272.371L297.945 268.108C297.356 267.761 297.431 267.171 298.111 266.778L305.403 262.56C306.082 262.167 307.124 262.122 307.713 262.469L315.08 266.733C315.669 267.08 315.593 267.67 314.914 268.063L307.622 272.281C306.943 272.674 305.901 272.719 305.312 272.371Z" fill="#06033E"/>
<path d="M293.989 265.825L286.622 261.562C286.033 261.215 286.109 260.625 286.788 260.232L294.08 256.014C294.759 255.621 295.801 255.576 296.39 255.923L303.757 260.187C304.346 260.534 304.271 261.124 303.591 261.517L296.299 265.735C295.62 266.128 294.578 266.173 293.989 265.825Z" fill="#06033E"/>
<path d="M282.682 259.295L275.314 255.032C274.725 254.684 274.801 254.094 275.48 253.701L282.772 249.483C283.452 249.09 284.493 249.045 285.082 249.393L292.449 253.656C293.038 254.004 292.963 254.593 292.283 254.986L284.991 259.204C284.312 259.597 283.27 259.642 282.682 259.295Z" fill="#06033E"/>
<path d="M294.321 252.567L286.954 248.304C286.365 247.957 286.441 247.367 287.12 246.974L289.536 245.583C290.215 245.19 291.257 245.145 291.845 245.492L299.213 249.756C299.802 250.103 299.726 250.693 299.047 251.086L296.631 252.477C295.952 252.87 294.91 252.915 294.321 252.567Z" fill="#06033E"/>
<path d="M309.071 261.094L301.704 256.831C301.115 256.483 301.191 255.893 301.87 255.5L304.286 254.109C304.965 253.716 306.007 253.671 306.595 254.019L313.963 258.282C314.552 258.63 314.476 259.219 313.797 259.612L311.381 261.003C310.702 261.396 309.66 261.441 309.071 261.094Z" fill="#06033E"/>
<path d="M320.349 267.609L312.982 263.346C312.393 262.998 312.468 262.409 313.148 262.016L315.563 260.625C316.243 260.232 317.284 260.187 317.873 260.534L325.241 264.797C325.829 265.145 325.754 265.735 325.074 266.128L322.659 267.519C321.98 267.912 320.938 267.957 320.349 267.609Z" fill="#06033E"/>
<path d="M331.612 274.125L324.244 269.862C323.655 269.514 323.731 268.925 324.41 268.531L326.826 267.141C327.505 266.748 328.547 266.702 329.136 267.05L336.503 271.313C337.092 271.661 337.017 272.25 336.337 272.643L333.922 274.034C333.242 274.427 332.2 274.473 331.612 274.125Z" fill="#06033E"/>
<path d="M342.874 280.641L335.507 276.377C334.918 276.03 334.993 275.44 335.673 275.047L338.088 273.656C338.768 273.263 339.809 273.218 340.398 273.566L347.766 277.829C348.354 278.176 348.279 278.766 347.6 279.159L345.184 280.55C344.505 280.943 343.463 280.988 342.874 280.641Z" fill="#06033E"/>
<path d="M405.769 316.998L398.402 312.735C397.813 312.387 397.889 311.798 398.568 311.405L400.984 310.014C401.663 309.621 402.705 309.575 403.293 309.923L410.661 314.186C411.25 314.534 411.174 315.124 410.495 315.517L408.079 316.907C407.4 317.3 406.358 317.346 405.769 316.998Z" fill="#06033E"/>
<path d="M417.032 323.514L409.665 319.251C409.076 318.903 409.151 318.313 409.831 317.92L412.246 316.529C412.926 316.136 413.967 316.091 414.556 316.439L421.924 320.702C422.512 321.05 422.437 321.639 421.758 322.032L419.342 323.423C418.663 323.816 417.621 323.861 417.032 323.514Z" fill="#06033E"/>
<path d="M428.295 330.014L420.927 325.751C420.338 325.403 420.414 324.814 421.093 324.421L423.509 323.03C424.188 322.637 425.23 322.592 425.819 322.939L433.186 327.202C433.775 327.55 433.699 328.14 433.02 328.533L430.604 329.924C429.925 330.317 428.883 330.362 428.295 330.014Z" fill="#06033E"/>
<path d="M439.557 336.53L432.19 332.267C431.601 331.919 431.676 331.329 432.356 330.936L434.771 329.546C435.451 329.153 436.492 329.107 437.081 329.455L444.449 333.718C445.037 334.066 444.962 334.655 444.282 335.048L441.867 336.439C441.188 336.832 440.146 336.878 439.557 336.53Z" fill="#06033E"/>
<path d="M327.988 285.478L320.621 281.215C320.032 280.867 320.108 280.278 320.787 279.885L328.079 275.667C328.758 275.274 329.8 275.228 330.389 275.576L337.756 279.839C338.345 280.187 338.27 280.777 337.59 281.17L330.298 285.387C329.619 285.78 328.577 285.826 327.988 285.478Z" fill="#06033E"/>
<path d="M339.357 292.054L331.989 287.791C331.4 287.443 331.476 286.854 332.155 286.461L339.447 282.243C340.127 281.85 341.168 281.805 341.757 282.152L349.125 286.415C349.713 286.763 349.638 287.353 348.958 287.746L341.666 291.963C340.987 292.357 339.945 292.402 339.357 292.054Z" fill="#06033E"/>
<path d="M350.725 298.63L343.357 294.367C342.768 294.02 342.844 293.43 343.523 293.037L350.815 288.819C351.495 288.426 352.536 288.381 353.125 288.728L360.493 292.992C361.081 293.339 361.006 293.929 360.327 294.322L353.035 298.54C352.355 298.933 351.314 298.978 350.725 298.63Z" fill="#06033E"/>
<path d="M362.093 305.191L354.726 300.928C354.137 300.58 354.212 299.991 354.892 299.598L362.184 295.38C362.863 294.987 363.905 294.942 364.494 295.289L371.861 299.552C372.45 299.9 372.374 300.49 371.695 300.883L364.403 305.101C363.724 305.494 362.682 305.539 362.093 305.191Z" fill="#06033E"/>
<path d="M373.461 311.767L366.094 307.504C365.505 307.157 365.581 306.567 366.26 306.174L373.552 301.956C374.231 301.563 375.273 301.518 375.862 301.865L383.229 306.129C383.818 306.476 383.743 307.066 383.063 307.459L375.771 311.677C375.092 312.07 374.05 312.115 373.461 311.767Z" fill="#06033E"/>
<path d="M384.829 318.343L377.462 314.08C376.873 313.733 376.949 313.143 377.628 312.75L384.92 308.532C385.599 308.139 386.641 308.094 387.23 308.442L394.597 312.705C395.186 313.052 395.111 313.642 394.431 314.035L387.139 318.253C386.46 318.646 385.418 318.691 384.829 318.343Z" fill="#06033E"/>
<path d="M396.198 324.92L388.83 320.656C388.242 320.309 388.317 319.719 388.997 319.326L396.288 315.108C396.968 314.715 398.01 314.67 398.598 315.018L405.966 319.281C406.555 319.628 406.479 320.218 405.8 320.611L398.508 324.829C397.828 325.222 396.787 325.267 396.198 324.92Z" fill="#06033E"/>
<path d="M407.566 331.481L400.199 327.217C399.61 326.87 399.685 326.28 400.365 325.887L407.657 321.669C408.336 321.276 409.378 321.231 409.967 321.579L417.334 325.842C417.923 326.189 417.847 326.779 417.168 327.172L409.876 331.39C409.197 331.783 408.155 331.828 407.566 331.481Z" fill="#06033E"/>
<path d="M418.934 338.057L411.567 333.793C410.978 333.446 411.053 332.856 411.733 332.463L419.025 328.245C419.704 327.852 420.746 327.807 421.335 328.155L428.702 332.418C429.291 332.766 429.215 333.355 428.536 333.748L421.244 337.966C420.565 338.359 419.523 338.404 418.934 338.057Z" fill="#06033E"/>
<path d="M262.994 286.295L241.315 273.762C240.726 273.414 240.801 272.825 241.481 272.432L248.773 268.214C249.452 267.821 250.494 267.776 251.083 268.123L272.762 280.656C273.351 281.003 273.276 281.593 272.596 281.986L265.304 286.204C264.625 286.597 263.583 286.642 262.994 286.295Z" fill="#06033E"/>
<path d="M402.659 367.037L380.98 354.504C380.391 354.157 380.467 353.567 381.146 353.174L388.438 348.956C389.117 348.563 390.159 348.518 390.748 348.866L412.427 361.398C413.016 361.746 412.941 362.335 412.261 362.728L404.969 366.946C404.29 367.339 403.248 367.385 402.659 367.037Z" fill="#06033E"/>
<path d="M357.186 355.275L349.819 351.012C349.23 350.665 349.306 350.075 349.985 349.682L358.681 344.663C359.36 344.27 360.402 344.225 360.991 344.572L368.358 348.835C368.947 349.183 368.872 349.773 368.192 350.166L359.496 355.185C358.817 355.578 357.775 355.623 357.186 355.275Z" fill="#06033E"/>
<path d="M274.635 307.535L262.859 300.732C262.27 300.384 262.345 299.794 263.025 299.401L271.721 294.382C272.4 293.989 273.442 293.944 274.031 294.292L285.807 301.095C286.395 301.442 286.32 302.032 285.641 302.425L276.945 307.444C276.265 307.837 275.223 307.882 274.635 307.535Z" fill="#06033E"/>
<path d="M346.241 348.941L334.465 342.138C333.876 341.791 333.952 341.201 334.631 340.808L343.327 335.789C344.006 335.396 345.048 335.351 345.637 335.698L357.413 342.501C358.002 342.849 357.926 343.439 357.247 343.832L348.551 348.851C347.871 349.244 346.83 349.289 346.241 348.941Z" fill="#06033E"/>
<path d="M291.03 317.028L279.254 310.225C278.665 309.878 278.741 309.288 279.42 308.895L288.116 303.876C288.796 303.483 289.837 303.438 290.426 303.785L302.202 310.588C302.791 310.936 302.715 311.526 302.036 311.919L293.34 316.938C292.661 317.331 291.619 317.376 291.03 317.028Z" fill="#06033E"/>
<path d="M290.502 303.816L341.682 333.416C342.316 333.778 342.316 334.383 341.682 334.746L332.819 339.871C332.185 340.234 331.159 340.234 330.525 339.871L279.345 310.286L290.502 303.831V303.816Z" fill="#06033E"/>
<path d="M388.966 367.188L397.164 371.935C397.647 372.222 397.587 372.706 397.028 373.023L393.48 375.079C392.922 375.397 392.076 375.442 391.593 375.155L383.395 370.408C382.912 370.121 382.973 369.637 383.531 369.32L387.079 367.264C387.638 366.946 388.483 366.901 388.966 367.188Z" fill="#06033E"/>
<path d="M377.507 360.567L385.705 365.313C386.188 365.601 386.128 366.084 385.569 366.402L382.021 368.458C381.463 368.775 380.617 368.821 380.134 368.534L371.937 363.787C371.453 363.499 371.514 363.016 372.072 362.698L375.62 360.642C376.179 360.325 377.024 360.279 377.507 360.567Z" fill="#06033E"/>
<path d="M366.139 353.991L374.337 358.737C374.82 359.025 374.76 359.508 374.201 359.826L370.653 361.882C370.094 362.199 369.249 362.245 368.766 361.957L360.568 357.211C360.085 356.923 360.145 356.44 360.704 356.122L364.252 354.066C364.81 353.749 365.656 353.703 366.139 353.991Z" fill="#06033E"/>
<path d="M383.788 356.923L391.986 361.67C392.469 361.957 392.408 362.441 391.85 362.759L388.302 364.815C387.743 365.132 386.898 365.177 386.415 364.89L378.217 360.143C377.734 359.856 377.794 359.372 378.353 359.055L381.901 356.999C382.459 356.681 383.305 356.636 383.788 356.923Z" fill="#06033E"/>
</g>
<g opacity="0.4">
<path d="M236.121 285.267L228.754 281.003C228.165 280.656 228.241 280.066 228.92 279.673L237.616 274.654C238.295 274.261 239.337 274.216 239.926 274.563L247.293 278.827C247.882 279.174 247.807 279.764 247.127 280.157L238.431 285.176C237.752 285.569 236.71 285.614 236.121 285.267Z" fill="#06033E"/>
<path d="M247.49 291.843L240.122 287.579C239.533 287.232 239.609 286.642 240.288 286.249L248.984 281.23C249.664 280.837 250.705 280.792 251.294 281.139L258.662 285.403C259.25 285.75 259.175 286.34 258.496 286.733L249.8 291.752C249.12 292.145 248.078 292.19 247.49 291.843Z" fill="#06033E"/>
<path d="M258.858 298.419L251.491 294.156C250.902 293.808 250.977 293.218 251.657 292.825L260.353 287.806C261.032 287.413 262.074 287.368 262.663 287.715L270.03 291.979C270.619 292.326 270.543 292.916 269.864 293.309L261.168 298.328C260.489 298.721 259.447 298.766 258.858 298.419Z" fill="#06033E"/>
<path d="M274.574 292.992L267.207 288.728C266.618 288.381 266.693 287.791 267.373 287.398L274.665 283.18C275.344 282.787 276.386 282.742 276.975 283.09L284.342 287.353C284.931 287.7 284.855 288.29 284.176 288.683L276.884 292.901C276.205 293.294 275.163 293.339 274.574 292.992Z" fill="#06033E"/>
<path d="M285.943 299.568L278.575 295.304C277.986 294.957 278.062 294.367 278.741 293.974L286.033 289.756C286.712 289.363 287.754 289.318 288.343 289.666L295.71 293.929C296.299 294.276 296.224 294.866 295.544 295.259L288.252 299.477C287.573 299.87 286.531 299.915 285.943 299.568Z" fill="#06033E"/>
<path d="M297.311 306.129L289.943 301.865C289.354 301.518 289.43 300.928 290.109 300.535L297.401 296.317C298.081 295.924 299.122 295.879 299.711 296.227L307.079 300.49C307.667 300.837 307.592 301.427 306.913 301.82L299.621 306.038C298.941 306.431 297.899 306.476 297.311 306.129Z" fill="#06033E"/>
<path d="M308.679 312.705L301.311 308.442C300.723 308.094 300.798 307.504 301.477 307.111L308.769 302.893C309.449 302.5 310.491 302.455 311.079 302.803L318.447 307.066C319.036 307.414 318.96 308.003 318.281 308.396L310.989 312.614C310.309 313.007 309.268 313.052 308.679 312.705Z" fill="#06033E"/>
<path d="M320.047 319.281L312.68 315.018C312.091 314.67 312.166 314.08 312.846 313.687L320.138 309.47C320.817 309.076 321.859 309.031 322.448 309.379L329.815 313.642C330.404 313.99 330.329 314.579 329.649 314.972L322.357 319.19C321.678 319.583 320.636 319.628 320.047 319.281Z" fill="#06033E"/>
<path d="M331.415 325.857L324.048 321.594C323.459 321.246 323.535 320.657 324.214 320.263L331.506 316.046C332.185 315.653 333.227 315.607 333.816 315.955L341.183 320.218C341.772 320.566 341.697 321.155 341.017 321.548L333.725 325.766C333.046 326.159 332.004 326.205 331.415 325.857Z" fill="#06033E"/>
<path d="M342.784 332.418L335.416 328.155C334.827 327.807 334.903 327.217 335.582 326.824L342.874 322.607C343.554 322.214 344.595 322.168 345.184 322.516L352.552 326.779C353.14 327.127 353.065 327.716 352.385 328.109L345.093 332.327C344.414 332.72 343.372 332.766 342.784 332.418Z" fill="#06033E"/>
<path d="M354.152 338.994L346.785 334.731C346.196 334.383 346.271 333.794 346.951 333.401L354.243 329.183C354.922 328.79 355.964 328.744 356.552 329.092L363.92 333.355C364.509 333.703 364.433 334.292 363.754 334.686L356.462 338.903C355.783 339.296 354.741 339.342 354.152 338.994Z" fill="#06033E"/>
<path d="M365.52 345.57L358.153 341.307C357.564 340.959 357.639 340.37 358.319 339.977L365.611 335.759C366.29 335.366 367.332 335.32 367.921 335.668L375.288 339.931C375.877 340.279 375.801 340.869 375.122 341.262L367.83 345.479C367.151 345.872 366.109 345.918 365.52 345.57Z" fill="#06033E"/>
<path d="M376.888 352.146L369.521 347.883C368.932 347.535 369.008 346.946 369.687 346.553L376.979 342.335C377.658 341.942 378.7 341.896 379.289 342.244L386.656 346.507C387.245 346.855 387.17 347.445 386.49 347.838L379.198 352.055C378.519 352.448 377.477 352.494 376.888 352.146Z" fill="#06033E"/>
<path d="M291.332 289.877L283.965 285.614C283.376 285.266 283.451 284.677 284.131 284.284L291.423 280.066C292.102 279.673 293.144 279.628 293.733 279.975L301.1 284.239C301.689 284.586 301.613 285.176 300.934 285.569L293.642 289.787C292.963 290.18 291.921 290.225 291.332 289.877Z" fill="#06033E"/>
<path d="M279.783 283.211L272.415 278.947C271.827 278.6 271.902 278.01 272.581 277.617L279.873 273.399C280.553 273.006 281.595 272.961 282.183 273.309L289.551 277.572C290.14 277.919 290.064 278.509 289.385 278.902L282.093 283.12C281.413 283.513 280.372 283.558 279.783 283.211Z" fill="#06033E"/>
<path d="M268.233 276.529L252.381 267.367C251.792 267.02 251.868 266.43 252.547 266.037L259.839 261.819C260.519 261.426 261.56 261.381 262.149 261.729L278.001 270.89C278.59 271.238 278.515 271.827 277.835 272.22L270.543 276.438C269.864 276.831 268.822 276.876 268.233 276.529Z" fill="#06033E"/>
<path d="M276.31 268.395L263.448 260.958C262.859 260.61 262.934 260.02 263.614 259.627L270.906 255.409C271.585 255.016 272.627 254.971 273.216 255.319L286.078 262.757C286.667 263.104 286.592 263.694 285.912 264.087L278.62 268.305C277.941 268.698 276.899 268.743 276.31 268.395Z" fill="#06033E"/>
<path d="M302.7 296.453L295.333 292.19C294.744 291.843 294.82 291.253 295.499 290.86L302.791 286.642C303.47 286.249 304.512 286.204 305.101 286.551L312.468 290.815C313.057 291.162 312.982 291.752 312.302 292.145L305.01 296.363C304.331 296.756 303.289 296.801 302.7 296.453Z" fill="#06033E"/>
<path d="M314.069 303.03L306.701 298.766C306.112 298.419 306.188 297.829 306.867 297.436L314.159 293.218C314.839 292.825 315.88 292.78 316.469 293.128L323.837 297.391C324.425 297.738 324.35 298.328 323.671 298.721L316.379 302.939C315.699 303.332 314.658 303.377 314.069 303.03Z" fill="#06033E"/>
<path d="M325.437 309.59L318.069 305.327C317.481 304.98 317.556 304.39 318.236 303.997L325.527 299.779C326.207 299.386 327.249 299.341 327.837 299.689L335.205 303.952C335.794 304.299 335.718 304.889 335.039 305.282L327.747 309.5C327.067 309.893 326.026 309.938 325.437 309.59Z" fill="#06033E"/>
<path d="M336.805 316.167L329.438 311.904C328.849 311.556 328.924 310.966 329.604 310.573L336.896 306.355C337.575 305.962 338.617 305.917 339.206 306.265L346.573 310.528C347.162 310.876 347.086 311.465 346.407 311.858L339.115 316.076C338.436 316.469 337.394 316.514 336.805 316.167Z" fill="#06033E"/>
<path d="M348.173 322.743L340.806 318.48C340.217 318.132 340.293 317.542 340.972 317.149L348.264 312.931C348.943 312.538 349.985 312.493 350.574 312.841L357.941 317.104C358.53 317.452 358.455 318.041 357.775 318.434L350.483 322.652C349.804 323.045 348.762 323.09 348.173 322.743Z" fill="#06033E"/>
<path d="M359.542 329.319L352.174 325.056C351.585 324.708 351.661 324.118 352.34 323.725L359.632 319.508C360.312 319.115 361.353 319.069 361.942 319.417L369.31 323.68C369.898 324.028 369.823 324.617 369.143 325.01L361.852 329.228C361.172 329.621 360.13 329.667 359.542 329.319Z" fill="#06033E"/>
<path d="M370.91 335.88L363.542 331.617C362.954 331.269 363.029 330.679 363.708 330.286L371 326.069C371.68 325.675 372.721 325.63 373.31 325.978L380.678 330.241C381.267 330.589 381.191 331.178 380.512 331.571L373.22 335.789C372.54 336.182 371.499 336.227 370.91 335.88Z" fill="#06033E"/>
<path d="M382.278 342.456L374.911 338.193C374.322 337.845 374.397 337.255 375.077 336.862L382.369 332.645C383.048 332.252 384.09 332.206 384.678 332.554L392.046 336.817C392.635 337.165 392.559 337.754 391.88 338.147L384.588 342.365C383.908 342.758 382.867 342.804 382.278 342.456Z" fill="#06033E"/>
<path d="M393.646 349.032L386.279 344.769C385.69 344.421 385.766 343.832 386.445 343.438L393.737 339.221C394.416 338.828 395.458 338.782 396.047 339.13L403.414 343.393C404.003 343.741 403.928 344.33 403.248 344.723L395.956 348.941C395.277 349.334 394.235 349.38 393.646 349.032Z" fill="#06033E"/>
<path d="M413.861 360.718L397.798 351.436C397.209 351.088 397.285 350.498 397.964 350.105L405.256 345.887C405.935 345.494 406.977 345.449 407.566 345.797L423.629 355.079C424.218 355.427 424.143 356.016 423.463 356.409L416.171 360.627C415.492 361.02 414.45 361.065 413.861 360.718Z" fill="#06033E"/>
<path d="M435.994 347.913L422.437 340.082C421.848 339.735 421.924 339.145 422.603 338.752L429.895 334.534C430.574 334.141 431.616 334.096 432.205 334.444L445.762 342.274C446.351 342.622 446.275 343.212 445.596 343.605L438.304 347.823C437.625 348.216 436.583 348.261 435.994 347.913Z" fill="#06033E"/>
<path d="M322.599 295.168L315.231 290.905C314.642 290.558 314.718 289.968 315.397 289.575L322.689 285.357C323.368 284.964 324.41 284.919 324.999 285.267L332.366 289.53C332.955 289.877 332.88 290.467 332.2 290.86L324.908 295.078C324.229 295.471 323.187 295.516 322.599 295.168Z" fill="#06033E"/>
<path d="M310.959 288.426L303.591 284.163C303.002 283.815 303.078 283.226 303.757 282.833L311.049 278.615C311.729 278.222 312.77 278.176 313.359 278.524L320.727 282.787C321.315 283.135 321.24 283.724 320.561 284.118L313.269 288.335C312.589 288.728 311.547 288.774 310.959 288.426Z" fill="#06033E"/>
<path d="M299.304 281.699L291.936 277.436C291.347 277.088 291.423 276.498 292.102 276.105L299.394 271.888C300.074 271.495 301.115 271.449 301.704 271.797L309.072 276.06C309.66 276.408 309.585 276.997 308.905 277.39L301.613 281.608C300.934 282.001 299.892 282.047 299.304 281.699Z" fill="#06033E"/>
<path d="M287.648 274.956L280.281 270.693C279.692 270.346 279.768 269.756 280.447 269.363L287.739 265.145C288.418 264.752 289.46 264.707 290.049 265.054L297.416 269.318C298.005 269.665 297.93 270.255 297.25 270.648L289.958 274.866C289.279 275.259 288.237 275.304 287.648 274.956Z" fill="#06033E"/>
<path d="M333.967 301.745L326.599 297.481C326.011 297.134 326.086 296.544 326.766 296.151L334.058 291.933C334.737 291.54 335.779 291.495 336.367 291.843L343.735 296.106C344.324 296.453 344.248 297.043 343.569 297.436L336.277 301.654C335.597 302.047 334.556 302.092 333.967 301.745Z" fill="#06033E"/>
<path d="M345.335 308.306L337.968 304.042C337.379 303.695 337.454 303.105 338.134 302.712L345.426 298.494C346.105 298.101 347.147 298.056 347.736 298.404L355.103 302.667C355.692 303.014 355.616 303.604 354.937 303.997L347.645 308.215C346.966 308.608 345.924 308.653 345.335 308.306Z" fill="#06033E"/>
<path d="M356.718 314.882L349.351 310.618C348.762 310.271 348.838 309.681 349.517 309.288L356.809 305.07C357.488 304.677 358.53 304.632 359.119 304.98L366.486 309.243C367.075 309.59 367 310.18 366.32 310.573L359.028 314.791C358.349 315.184 357.307 315.229 356.718 314.882Z" fill="#06033E"/>
<path d="M368.087 321.458L360.719 317.195C360.13 316.847 360.206 316.257 360.885 315.864L368.177 311.646C368.857 311.253 369.898 311.208 370.487 311.556L377.855 315.819C378.443 316.167 378.368 316.756 377.688 317.149L370.396 321.367C369.717 321.76 368.675 321.805 368.087 321.458Z" fill="#06033E"/>
<path d="M379.455 328.034L372.088 323.771C371.499 323.423 371.574 322.833 372.254 322.44L379.546 318.223C380.225 317.83 381.267 317.784 381.855 318.132L389.223 322.395C389.812 322.743 389.736 323.332 389.057 323.725L381.765 327.943C381.085 328.336 380.044 328.382 379.455 328.034Z" fill="#06033E"/>
<path d="M390.823 334.595L383.456 330.332C382.867 329.984 382.942 329.394 383.622 329.001L390.914 324.783C391.593 324.39 392.635 324.345 393.224 324.693L400.591 328.956C401.18 329.304 401.104 329.893 400.425 330.286L393.133 334.504C392.454 334.897 391.412 334.942 390.823 334.595Z" fill="#06033E"/>
<path d="M402.191 341.171L394.824 336.908C394.235 336.56 394.311 335.97 394.99 335.577L402.282 331.36C402.961 330.967 404.003 330.921 404.592 331.269L411.959 335.532C412.548 335.88 412.473 336.469 411.793 336.862L404.501 341.08C403.822 341.473 402.78 341.519 402.191 341.171Z" fill="#06033E"/>
<path d="M413.56 347.747L406.192 343.484C405.603 343.136 405.679 342.547 406.358 342.153L413.65 337.936C414.33 337.543 415.371 337.497 415.96 337.845L423.328 342.108C423.916 342.456 423.841 343.045 423.162 343.438L415.87 347.656C415.19 348.049 414.149 348.095 413.56 347.747Z" fill="#06033E"/>
<path d="M424.928 354.323L417.56 350.06C416.972 349.712 417.047 349.123 417.726 348.73L425.018 344.512C425.698 344.119 426.74 344.073 427.328 344.421L434.696 348.684C435.285 349.032 435.209 349.621 434.53 350.015L427.238 354.232C426.558 354.625 425.517 354.671 424.928 354.323Z" fill="#06033E"/>
<path d="M316.62 278.902L309.253 274.639C308.664 274.291 308.739 273.702 309.419 273.309L316.711 269.091C317.39 268.698 318.432 268.652 319.02 269L326.388 273.263C326.977 273.611 326.901 274.201 326.222 274.594L318.93 278.811C318.251 279.204 317.209 279.25 316.62 278.902Z" fill="#06033E"/>
<path d="M305.312 272.371L297.945 268.108C297.356 267.761 297.431 267.171 298.111 266.778L305.403 262.56C306.082 262.167 307.124 262.122 307.713 262.469L315.08 266.733C315.669 267.08 315.593 267.67 314.914 268.063L307.622 272.281C306.943 272.674 305.901 272.719 305.312 272.371Z" fill="#06033E"/>
<path d="M293.989 265.825L286.622 261.562C286.033 261.215 286.109 260.625 286.788 260.232L294.08 256.014C294.759 255.621 295.801 255.576 296.39 255.923L303.757 260.187C304.346 260.534 304.271 261.124 303.591 261.517L296.299 265.735C295.62 266.128 294.578 266.173 293.989 265.825Z" fill="#06033E"/>
<path d="M282.682 259.295L275.314 255.032C274.725 254.684 274.801 254.094 275.48 253.701L282.772 249.483C283.452 249.09 284.493 249.045 285.082 249.393L292.449 253.656C293.038 254.004 292.963 254.593 292.283 254.986L284.991 259.204C284.312 259.597 283.27 259.642 282.682 259.295Z" fill="#06033E"/>
<path d="M294.321 252.567L286.954 248.304C286.365 247.957 286.441 247.367 287.12 246.974L289.536 245.583C290.215 245.19 291.257 245.145 291.845 245.492L299.213 249.756C299.802 250.103 299.726 250.693 299.047 251.086L296.631 252.477C295.952 252.87 294.91 252.915 294.321 252.567Z" fill="#06033E"/>
<path d="M309.071 261.094L301.704 256.831C301.115 256.483 301.191 255.893 301.87 255.5L304.286 254.109C304.965 253.716 306.007 253.671 306.595 254.019L313.963 258.282C314.552 258.63 314.476 259.219 313.797 259.612L311.381 261.003C310.702 261.396 309.66 261.441 309.071 261.094Z" fill="#06033E"/>
<path d="M320.349 267.609L312.982 263.346C312.393 262.998 312.468 262.409 313.148 262.016L315.563 260.625C316.243 260.232 317.284 260.187 317.873 260.534L325.241 264.797C325.829 265.145 325.754 265.735 325.074 266.128L322.659 267.519C321.98 267.912 320.938 267.957 320.349 267.609Z" fill="#06033E"/>
<path d="M331.612 274.125L324.244 269.862C323.655 269.514 323.731 268.925 324.41 268.531L326.826 267.141C327.505 266.748 328.547 266.702 329.136 267.05L336.503 271.313C337.092 271.661 337.017 272.25 336.337 272.643L333.922 274.034C333.242 274.427 332.2 274.473 331.612 274.125Z" fill="#06033E"/>
<path d="M342.874 280.641L335.507 276.377C334.918 276.03 334.993 275.44 335.673 275.047L338.088 273.656C338.768 273.263 339.809 273.218 340.398 273.566L347.766 277.829C348.354 278.176 348.279 278.766 347.6 279.159L345.184 280.55C344.505 280.943 343.463 280.988 342.874 280.641Z" fill="#06033E"/>
<path d="M405.769 316.998L398.402 312.735C397.813 312.387 397.889 311.798 398.568 311.405L400.984 310.014C401.663 309.621 402.705 309.575 403.293 309.923L410.661 314.186C411.25 314.534 411.174 315.124 410.495 315.517L408.079 316.907C407.4 317.3 406.358 317.346 405.769 316.998Z" fill="#06033E"/>
<path d="M417.032 323.514L409.665 319.251C409.076 318.903 409.151 318.313 409.831 317.92L412.246 316.529C412.926 316.136 413.967 316.091 414.556 316.439L421.924 320.702C422.512 321.05 422.437 321.639 421.758 322.032L419.342 323.423C418.663 323.816 417.621 323.861 417.032 323.514Z" fill="#06033E"/>
<path d="M428.295 330.014L420.927 325.751C420.338 325.403 420.414 324.814 421.093 324.421L423.509 323.03C424.188 322.637 425.23 322.592 425.819 322.939L433.186 327.202C433.775 327.55 433.699 328.14 433.02 328.533L430.604 329.924C429.925 330.317 428.883 330.362 428.295 330.014Z" fill="#06033E"/>
<path d="M439.557 336.53L432.19 332.267C431.601 331.919 431.676 331.329 432.356 330.936L434.771 329.546C435.451 329.153 436.492 329.107 437.081 329.455L444.449 333.718C445.037 334.066 444.962 334.655 444.282 335.048L441.867 336.439C441.188 336.832 440.146 336.878 439.557 336.53Z" fill="#06033E"/>
<path d="M327.988 285.478L320.621 281.215C320.032 280.867 320.108 280.278 320.787 279.885L328.079 275.667C328.758 275.274 329.8 275.228 330.389 275.576L337.756 279.839C338.345 280.187 338.27 280.777 337.59 281.17L330.298 285.387C329.619 285.78 328.577 285.826 327.988 285.478Z" fill="#06033E"/>
<path d="M339.357 292.054L331.989 287.791C331.4 287.443 331.476 286.854 332.155 286.461L339.447 282.243C340.127 281.85 341.168 281.805 341.757 282.152L349.125 286.415C349.713 286.763 349.638 287.353 348.958 287.746L341.666 291.963C340.987 292.357 339.945 292.402 339.357 292.054Z" fill="#06033E"/>
<path d="M350.725 298.63L343.357 294.367C342.768 294.02 342.844 293.43 343.523 293.037L350.815 288.819C351.495 288.426 352.536 288.381 353.125 288.728L360.493 292.992C361.081 293.339 361.006 293.929 360.327 294.322L353.035 298.54C352.355 298.933 351.314 298.978 350.725 298.63Z" fill="#06033E"/>
<path d="M362.093 305.191L354.726 300.928C354.137 300.58 354.212 299.991 354.892 299.598L362.184 295.38C362.863 294.987 363.905 294.942 364.494 295.289L371.861 299.552C372.45 299.9 372.374 300.49 371.695 300.883L364.403 305.101C363.724 305.494 362.682 305.539 362.093 305.191Z" fill="#06033E"/>
<path d="M373.461 311.767L366.094 307.504C365.505 307.157 365.581 306.567 366.26 306.174L373.552 301.956C374.231 301.563 375.273 301.518 375.862 301.865L383.229 306.129C383.818 306.476 383.743 307.066 383.063 307.459L375.771 311.677C375.092 312.07 374.05 312.115 373.461 311.767Z" fill="#06033E"/>
<path d="M384.829 318.343L377.462 314.08C376.873 313.733 376.949 313.143 377.628 312.75L384.92 308.532C385.599 308.139 386.641 308.094 387.23 308.442L394.597 312.705C395.186 313.052 395.111 313.642 394.431 314.035L387.139 318.253C386.46 318.646 385.418 318.691 384.829 318.343Z" fill="#06033E"/>
<path d="M396.198 324.92L388.83 320.656C388.242 320.309 388.317 319.719 388.997 319.326L396.288 315.108C396.968 314.715 398.01 314.67 398.598 315.018L405.966 319.281C406.555 319.628 406.479 320.218 405.8 320.611L398.508 324.829C397.828 325.222 396.787 325.267 396.198 324.92Z" fill="#06033E"/>
<path d="M407.566 331.481L400.199 327.217C399.61 326.87 399.685 326.28 400.365 325.887L407.657 321.669C408.336 321.276 409.378 321.231 409.967 321.579L417.334 325.842C417.923 326.189 417.847 326.779 417.168 327.172L409.876 331.39C409.197 331.783 408.155 331.828 407.566 331.481Z" fill="#06033E"/>
<path d="M418.934 338.057L411.567 333.793C410.978 333.446 411.053 332.856 411.733 332.463L419.025 328.245C419.704 327.852 420.746 327.807 421.335 328.155L428.702 332.418C429.291 332.766 429.215 333.355 428.536 333.748L421.244 337.966C420.565 338.359 419.523 338.404 418.934 338.057Z" fill="#06033E"/>
<path d="M262.994 286.295L241.315 273.762C240.726 273.414 240.801 272.825 241.481 272.432L248.773 268.214C249.452 267.821 250.494 267.776 251.083 268.123L272.762 280.656C273.351 281.003 273.276 281.593 272.596 281.986L265.304 286.204C264.625 286.597 263.583 286.642 262.994 286.295Z" fill="#06033E"/>
<path d="M402.659 367.037L380.98 354.504C380.391 354.157 380.467 353.567 381.146 353.174L388.438 348.956C389.117 348.563 390.159 348.518 390.748 348.866L412.427 361.398C413.016 361.746 412.941 362.335 412.261 362.728L404.969 366.946C404.29 367.339 403.248 367.385 402.659 367.037Z" fill="#06033E"/>
<path d="M357.186 355.275L349.819 351.012C349.23 350.665 349.306 350.075 349.985 349.682L358.681 344.663C359.36 344.27 360.402 344.225 360.991 344.572L368.358 348.835C368.947 349.183 368.872 349.773 368.192 350.166L359.496 355.185C358.817 355.578 357.775 355.623 357.186 355.275Z" fill="#06033E"/>
<path d="M274.635 307.535L262.859 300.732C262.27 300.384 262.345 299.794 263.025 299.401L271.721 294.382C272.4 293.989 273.442 293.944 274.031 294.292L285.807 301.095C286.395 301.442 286.32 302.032 285.641 302.425L276.945 307.444C276.265 307.837 275.223 307.882 274.635 307.535Z" fill="#06033E"/>
<path d="M346.241 348.941L334.465 342.138C333.876 341.791 333.952 341.201 334.631 340.808L343.327 335.789C344.006 335.396 345.048 335.351 345.637 335.698L357.413 342.501C358.002 342.849 357.926 343.439 357.247 343.832L348.551 348.851C347.871 349.244 346.83 349.289 346.241 348.941Z" fill="#06033E"/>
<path d="M291.03 317.028L279.254 310.225C278.665 309.878 278.741 309.288 279.42 308.895L288.116 303.876C288.796 303.483 289.837 303.438 290.426 303.785L302.202 310.588C302.791 310.936 302.715 311.526 302.036 311.919L293.34 316.938C292.661 317.331 291.619 317.376 291.03 317.028Z" fill="#06033E"/>
<path d="M290.502 303.816L341.682 333.416C342.316 333.778 342.316 334.383 341.682 334.746L332.819 339.871C332.185 340.234 331.159 340.234 330.525 339.871L279.345 310.286L290.502 303.831V303.816Z" fill="#06033E"/>
<path d="M388.966 367.188L397.164 371.935C397.647 372.222 397.587 372.706 397.028 373.023L393.48 375.079C392.922 375.397 392.076 375.442 391.593 375.155L383.395 370.408C382.912 370.121 382.973 369.637 383.531 369.32L387.079 367.264C387.638 366.946 388.483 366.901 388.966 367.188Z" fill="#06033E"/>
<path d="M377.507 360.567L385.705 365.313C386.188 365.601 386.128 366.084 385.569 366.402L382.021 368.458C381.463 368.775 380.617 368.821 380.134 368.534L371.937 363.787C371.453 363.499 371.514 363.016 372.072 362.698L375.62 360.642C376.179 360.325 377.024 360.279 377.507 360.567Z" fill="#06033E"/>
<path d="M366.139 353.991L374.337 358.737C374.82 359.025 374.76 359.508 374.201 359.826L370.653 361.882C370.094 362.199 369.249 362.245 368.766 361.957L360.568 357.211C360.085 356.923 360.145 356.44 360.704 356.122L364.252 354.066C364.81 353.749 365.656 353.703 366.139 353.991Z" fill="#06033E"/>
<path d="M383.788 356.923L391.986 361.67C392.469 361.957 392.408 362.441 391.85 362.759L388.302 364.815C387.743 365.132 386.898 365.177 386.415 364.89L378.217 360.143C377.734 359.856 377.794 359.372 378.353 359.055L381.901 356.999C382.459 356.681 383.305 356.636 383.788 356.923Z" fill="#06033E"/>
</g>
<path d="M504.098 343.635L286.909 218.069C283.497 216.089 281.715 211.282 282.923 207.321L332.049 47.6351C333.272 43.6743 337.016 42.0719 340.444 44.0371L557.633 169.603C561.045 171.583 562.826 176.391 561.619 180.351L512.507 340.037C511.284 343.998 507.54 345.6 504.113 343.635H504.098Z" fill="url(#paint7_radial_5648_26559)"/>
<path d="M502.045 338.042L291.377 216.149C288.116 214.26 286.41 209.649 287.573 205.87L334.525 53.2135C335.688 49.419 339.281 47.877 342.557 49.7667L553.224 171.659C556.485 173.548 558.191 178.159 557.029 181.939L510.076 334.595C508.914 338.389 505.321 339.931 502.045 338.042Z" fill="url(#paint8_linear_5648_26559)"/>
<path opacity="0.4" d="M502.045 338.042L291.377 216.149C288.116 214.26 286.41 209.649 287.573 205.87L334.525 53.2135C335.688 49.419 339.281 47.877 342.557 49.7667L553.224 171.659C556.485 173.548 558.191 178.159 557.029 181.939L510.076 334.595C508.914 338.389 505.321 339.931 502.045 338.042Z" fill="#06033E"/>
<path opacity="0.4" d="M502.045 338.042L291.377 216.149C288.116 214.26 286.41 209.649 287.573 205.87L334.525 53.2135C335.688 49.419 339.281 47.877 342.557 49.7667L553.224 171.659C556.485 173.548 558.191 178.159 557.029 181.939L510.076 334.595C508.914 338.389 505.321 339.931 502.045 338.042Z" fill="#06033E"/>
<path opacity="0.5" d="M490.737 291.389L348.128 208.938C345.878 207.638 344.716 204.479 345.516 201.878L377.764 97.0238C378.564 94.4236 381.025 93.3654 383.274 94.6655L525.883 177.116C528.133 178.416 529.295 181.576 528.495 184.176L496.247 289.031C495.447 291.631 492.986 292.689 490.737 291.389Z" fill="#06033E"/>
<path d="M471.473 293.914L328.864 211.463C326.614 210.163 325.452 207.003 326.252 204.403L358.5 99.5485C359.3 96.9483 361.761 95.89 364.01 97.1901L506.619 179.641C508.869 180.941 510.031 184.1 509.231 186.701L476.983 291.555C476.183 294.156 473.722 295.214 471.473 293.914Z" fill="url(#paint9_radial_5648_26559)"/>
<g opacity="0.5">
<path d="M471.473 293.914L328.864 211.463C326.614 210.163 325.452 207.003 326.252 204.403L358.5 99.5485C359.3 96.9483 361.761 95.89 364.01 97.1901L506.619 179.641C508.869 180.941 510.031 184.1 509.231 186.701L476.983 291.555C476.183 294.156 473.722 295.214 471.473 293.914Z" fill="#06033E"/>
</g>
<path d="M506.604 179.656L363.995 97.2053C362.591 96.3889 361.096 96.5098 359.979 97.3413C360.659 97.3262 361.353 97.4774 362.032 97.8704L504.641 180.321C506.891 181.621 508.053 184.781 507.253 187.381L475.005 292.236C474.703 293.203 474.175 293.959 473.511 294.458C475.036 294.413 476.409 293.369 476.953 291.57L509.201 186.716C510.001 184.116 508.823 180.956 506.589 179.656H506.604Z" fill="white"/>
<path opacity="0.4" d="M291.604 379.539C289.641 379.539 287.754 379.131 286.32 378.299L229.177 345.268C227.667 344.391 226.836 343.136 226.836 341.745C226.836 340.128 227.984 338.525 229.992 337.376L259.401 320.369C262.994 318.298 268.263 318.086 271.419 319.901L328.547 352.932C330.056 353.809 330.887 355.064 330.902 356.455C330.902 358.072 329.754 359.675 327.747 360.823L298.337 377.831C296.39 378.964 293.944 379.539 291.604 379.539ZM266.15 320.339C264.081 320.339 261.892 320.838 260.216 321.805L230.807 338.812C229.327 339.674 228.482 340.748 228.482 341.76C228.482 342.773 229.312 343.454 230.007 343.847L287.15 376.878C289.747 378.375 294.487 378.163 297.507 376.41L326.916 359.402C328.396 358.541 329.241 357.483 329.241 356.455C329.241 355.427 328.411 354.761 327.716 354.368L270.588 321.337C269.426 320.672 267.841 320.339 266.15 320.339Z" fill="#06033E"/>
<path d="M398.734 152.218L389.917 147.123C389.102 146.655 388.664 145.521 388.936 144.584C389.207 143.661 390.098 143.283 390.913 143.752L399.73 148.847C400.545 149.315 400.983 150.449 400.711 151.386C400.44 152.309 399.549 152.686 398.734 152.218Z" fill="white"/>
<path d="M419.734 164.357L406.735 156.844C405.92 156.375 405.482 155.241 405.754 154.304C406.026 153.382 406.917 153.004 407.732 153.473L420.731 160.986C421.546 161.455 421.984 162.588 421.712 163.526C421.44 164.448 420.549 164.826 419.734 164.357Z" fill="white"/>
<path d="M380.949 191.523L372.132 186.429C371.317 185.96 370.879 184.826 371.151 183.889C371.423 182.967 372.314 182.589 373.129 183.057L381.946 188.152C382.761 188.621 383.199 189.755 382.927 190.692C382.655 191.614 381.765 191.992 380.949 191.523Z" fill="white"/>
<path d="M399.67 202.347L386.671 194.834C385.856 194.365 385.418 193.231 385.69 192.294C385.961 191.372 386.852 190.994 387.667 191.463L400.666 198.976C401.481 199.445 401.919 200.579 401.648 201.516C401.376 202.438 400.485 202.816 399.67 202.347Z" fill="white"/>
<path d="M372.329 145.218L366.818 142.029C366.003 141.56 365.565 140.426 365.837 139.489C366.109 138.567 366.999 138.189 367.815 138.657L373.325 141.847C374.14 142.316 374.578 143.45 374.306 144.387C374.035 145.309 373.144 145.687 372.329 145.218Z" fill="white"/>
<path d="M388.89 163.057L372.057 153.321C371.242 152.853 370.804 151.719 371.076 150.782C371.347 149.859 372.238 149.482 373.053 149.95L389.887 159.686C390.702 160.154 391.14 161.288 390.868 162.226C390.596 163.148 389.706 163.526 388.89 163.057Z" fill="white"/>
<path d="M373.37 170.616L367.86 167.426C367.045 166.957 366.607 165.824 366.879 164.886C367.15 163.964 368.041 163.586 368.856 164.055L374.367 167.245C375.182 167.713 375.62 168.847 375.348 169.784C375.076 170.706 374.186 171.084 373.37 170.616Z" fill="white"/>
<path d="M401.708 220.05L387.003 211.539C386.188 211.07 385.75 209.936 386.022 208.999C386.294 208.077 387.184 207.699 388 208.167L402.704 216.679C403.52 217.147 403.958 218.281 403.686 219.218C403.414 220.14 402.523 220.518 401.708 220.05Z" fill="white"/>
<path d="M367.196 183.571L363.663 181.531C362.848 181.062 362.41 179.928 362.682 178.991C362.953 178.069 363.844 177.691 364.659 178.159L368.192 180.2C369.007 180.669 369.445 181.803 369.173 182.74C368.902 183.662 368.011 184.04 367.196 183.571Z" fill="white"/>
<path d="M363.859 198.16L359.466 195.62C358.651 195.151 358.213 194.018 358.485 193.08C358.756 192.158 359.647 191.78 360.462 192.249L364.856 194.789C365.671 195.257 366.109 196.391 365.837 197.328C365.565 198.251 364.674 198.628 363.859 198.16Z" fill="white"/>
<path d="M380.934 208.031L369.355 201.334C368.539 200.866 368.102 199.732 368.373 198.795C368.645 197.873 369.536 197.495 370.351 197.963L381.931 204.66C382.746 205.129 383.184 206.263 382.912 207.2C382.64 208.122 381.749 208.5 380.934 208.031Z" fill="white"/>
<path d="M365.686 207.487L357.367 202.68C356.552 202.211 356.114 201.077 356.386 200.14C356.658 199.218 357.548 198.84 358.364 199.309L366.682 204.116C367.498 204.585 367.935 205.718 367.664 206.656C367.392 207.578 366.501 207.956 365.686 207.487Z" fill="white"/>
<path d="M414.329 227.382L408.985 224.298C408.169 223.829 407.732 222.695 408.003 221.758C408.275 220.836 409.166 220.458 409.981 220.927L415.326 224.011C416.141 224.479 416.579 225.613 416.307 226.55C416.035 227.472 415.144 227.85 414.329 227.382Z" fill="white"/>
<path d="M393.857 182.453L379.153 173.942C378.337 173.473 377.9 172.339 378.171 171.402C378.443 170.48 379.334 170.102 380.149 170.57L394.854 179.082C395.669 179.55 396.107 180.684 395.835 181.621C395.563 182.543 394.673 182.921 393.857 182.453Z" fill="white"/>
<path d="M395.609 175.196L369.973 160.381C369.158 159.913 368.72 158.779 368.992 157.841C369.264 156.919 370.155 156.541 370.97 157.01L396.605 171.825C397.42 172.294 397.858 173.428 397.586 174.365C397.315 175.287 396.424 175.665 395.609 175.196Z" fill="#E8975B"/>
<path d="M380.481 182.982L365.776 174.471C364.961 174.002 364.523 172.868 364.795 171.931C365.067 171.009 365.958 170.631 366.773 171.099L381.478 179.611C382.293 180.079 382.731 181.213 382.459 182.15C382.187 183.072 381.296 183.45 380.481 182.982Z" fill="#E8975B"/>
<path d="M405.014 188.908L399.67 185.824C398.855 185.355 398.417 184.221 398.688 183.284C398.96 182.362 399.851 181.984 400.666 182.453L406.011 185.537C406.826 186.005 407.264 187.139 406.992 188.076C406.72 188.999 405.829 189.377 405.014 188.908Z" fill="#E8975B"/>
<path d="M459.394 187.275L427.751 168.983C426.935 168.514 426.498 167.381 426.769 166.443C427.041 165.521 427.932 165.143 428.747 165.612L460.391 183.904C461.206 184.373 461.644 185.506 461.372 186.444C461.1 187.366 460.21 187.744 459.394 187.275Z" fill="#E8975B"/>
<path d="M379.243 198.795L361.564 188.575C360.749 188.107 360.311 186.973 360.583 186.036C360.855 185.113 361.745 184.735 362.561 185.204L380.24 195.423C381.055 195.892 381.493 197.026 381.221 197.963C380.949 198.885 380.058 199.263 379.243 198.795Z" fill="#F8359E"/>
<path d="M381.915 142.497L368.917 134.984C368.101 134.515 367.664 133.381 367.935 132.444C368.207 131.522 369.098 131.144 369.913 131.613L382.912 139.126C383.727 139.595 384.165 140.728 383.893 141.666C383.621 142.588 382.731 142.966 381.915 142.497Z" fill="#F8359E"/>
<path d="M362.968 214.184L347.916 205.477C347.101 205.008 346.663 203.874 346.935 202.937C347.207 202.015 348.098 201.637 348.913 202.105L363.965 210.813C364.78 211.282 365.218 212.415 364.946 213.353C364.674 214.275 363.784 214.653 362.968 214.184Z" fill="#E8975B"/>
<path d="M462.943 170.978L456.496 167.26C455.892 166.912 455.575 166.08 455.786 165.4C455.983 164.72 456.632 164.448 457.236 164.795L463.682 168.514C464.286 168.862 464.603 169.693 464.392 170.374C464.196 171.054 463.546 171.326 462.943 170.978Z" fill="white"/>
<path d="M475.232 178.084L468.785 174.365C468.181 174.017 467.864 173.186 468.076 172.505C468.272 171.825 468.921 171.553 469.525 171.901L475.972 175.619C476.575 175.967 476.893 176.799 476.681 177.479C476.485 178.159 475.836 178.431 475.232 178.084Z" fill="white"/>
<path d="M487.521 185.189L481.074 181.47C480.47 181.122 480.153 180.291 480.365 179.611C480.561 178.93 481.21 178.658 481.814 179.006L488.261 182.725C488.865 183.072 489.182 183.904 488.97 184.584C488.774 185.264 488.125 185.537 487.521 185.189Z" fill="white"/>
<path d="M493.575 188.696L493.379 188.575C492.775 188.227 492.458 187.396 492.669 186.716C492.865 186.035 493.514 185.763 494.118 186.111L494.315 186.232C494.919 186.58 495.236 187.411 495.024 188.091C494.828 188.772 494.179 189.044 493.575 188.696Z" fill="#F8359E"/>
<path d="M160.952 264.208C156.876 264.208 152.799 263.15 149.161 261.048L105.998 236.089C104.126 235.001 103.009 233.066 103.009 230.904C103.009 228.742 104.126 226.807 105.998 225.719L149.161 200.76C156.438 196.557 165.481 196.557 172.758 200.76L215.921 225.719C217.793 226.807 218.91 228.742 218.91 230.904C218.91 233.066 217.793 235.001 215.921 236.089L172.758 261.048C169.119 263.15 165.043 264.208 160.967 264.208H160.952ZM150.565 258.614C156.981 262.318 164.938 262.318 171.354 258.614L214.517 233.655C215.513 233.081 216.102 232.053 216.102 230.904C216.102 229.755 215.513 228.727 214.517 228.153L171.354 203.194C164.938 199.49 156.981 199.49 150.565 203.194L107.402 228.153C106.405 228.727 105.817 229.755 105.817 230.904C105.817 232.053 106.405 233.081 107.402 233.655L150.565 258.614Z" fill="url(#paint10_linear_5648_26559)"/>
<path opacity="0.6" d="M181.711 243.618C170.131 250.315 151.35 250.315 139.77 243.618C128.191 236.921 128.191 226.066 139.77 219.369C151.35 212.672 170.131 212.672 181.711 219.369C193.29 226.066 193.29 236.921 181.711 243.618Z" fill="#020230"/>
<path d="M204.689 109.329H120.235L128.085 200.896C128.085 205.975 131.437 211.07 138.155 214.94C151.577 222.695 173.347 222.695 186.768 214.94C193.487 211.055 196.838 205.975 196.838 200.881L204.689 109.314V109.329Z" fill="url(#paint11_radial_5648_26559)"/>
<path opacity="0.4" d="M204.689 109.329H120.235L121.533 124.386C123.465 126.866 126.077 129.254 129.353 131.431C145.492 142.149 172.124 144.22 190.286 136.495L187.478 203.466C187.357 206.383 186.346 209.225 184.458 211.448C181.726 214.668 176.457 218.462 166.327 220.609C173.8 220.125 181.046 218.236 186.768 214.925C193.487 211.04 196.838 205.96 196.838 200.866L203.134 127.44L204.689 109.314V109.329Z" fill="#06033E"/>
<path opacity="0.4" d="M162.462 133.744C185.783 133.744 204.689 122.813 204.689 109.329C204.689 95.8455 185.783 84.9147 162.462 84.9147C139.14 84.9147 120.235 95.8455 120.235 109.329C120.235 122.813 139.14 133.744 162.462 133.744Z" fill="#06033E"/>
<path opacity="0.4" d="M162.462 121.741C182.548 121.741 198.831 112.326 198.831 100.712C198.831 89.0988 182.548 79.6841 162.462 79.6841C142.375 79.6841 126.092 89.0988 126.092 100.712C126.092 112.326 142.375 121.741 162.462 121.741Z" fill="#06033E"/>
<path d="M207.195 108.18V108.105C207.195 108.059 207.195 108.014 207.195 107.984L206.38 99.7902L206.349 99.8809C205.987 93.6827 201.715 87.5299 193.532 82.7981C176.381 72.8811 148.587 72.8811 131.437 82.7981C123.043 87.6508 118.77 93.9851 118.589 100.35L117.819 107.621C117.804 107.818 117.774 107.999 117.759 108.195V108.316C117.291 115.27 121.654 122.315 130.833 127.621C148.315 137.735 176.668 137.735 194.151 127.621C203.39 122.285 207.753 115.18 207.225 108.18H207.195Z" fill="url(#paint12_linear_5648_26559)"/>
<path d="M162.462 121.741C182.548 121.741 198.831 112.326 198.831 100.712C198.831 89.0988 182.548 79.6841 162.462 79.6841C142.375 79.6841 126.092 89.0988 126.092 100.712C126.092 112.326 142.375 121.741 162.462 121.741Z" fill="url(#paint13_linear_5648_26559)"/>
<path d="M160.74 121.741C180.827 121.741 197.11 112.326 197.11 100.712C197.11 89.0988 180.827 79.6841 160.74 79.6841C140.654 79.6841 124.371 89.0988 124.371 100.712C124.371 112.326 140.654 121.741 160.74 121.741Z" fill="url(#paint14_linear_5648_26559)"/>
<path opacity="0.4" d="M141.054 88.9813C155.26 80.7726 178.283 80.7726 192.49 88.9813C192.671 89.0872 192.822 89.193 193.003 89.3139C191.629 88.0894 190.029 86.9254 188.187 85.852C173.981 77.6432 150.957 77.6432 136.751 85.852C122.726 93.955 122.575 107.032 136.238 115.271C127.119 107.122 128.704 96.1319 141.054 88.9964V88.9813Z" fill="#06033E"/>
<path d="M136.736 89.4953C150.942 81.2865 173.966 81.2865 188.172 89.4953C194.468 93.1386 197.97 97.7797 198.68 102.542C199.571 96.5703 196.068 90.4175 188.172 85.852C173.966 77.6432 150.942 77.6432 136.736 85.852C128.825 90.4175 125.337 96.5703 126.228 102.542C126.938 97.7797 130.44 93.1386 136.736 89.4953Z" fill="url(#paint15_linear_5648_26559)"/>
<path d="M193.773 82.9796C176.653 72.8812 148.753 72.6393 131.452 82.4354C114.15 92.2315 114.014 108.362 131.135 118.46C148.255 128.559 176.155 128.801 193.456 119.005C210.758 109.208 210.894 93.0781 193.773 82.9796ZM188.172 115.588C183.432 118.324 177.695 120.138 171.641 121.045L170.976 118.868C170.705 117.992 169.904 117.387 168.984 117.387H155.924C155.003 117.387 154.203 117.992 153.932 118.868L153.267 121.045C147.213 120.138 141.476 118.324 136.736 115.588C122.529 107.379 122.529 94.0607 136.736 85.852C150.942 77.6432 173.966 77.6432 188.172 85.852C202.379 94.0607 202.379 107.379 188.172 115.588Z" fill="url(#paint16_radial_5648_26559)"/>
<path d="M188.187 84.2949C173.981 76.0861 150.957 76.0861 136.751 84.2949C129.308 88.6034 125.775 94.3027 126.138 99.9415C126.47 94.8166 130.002 89.7523 136.751 85.852C150.957 77.6432 173.981 77.6432 188.187 85.852C194.951 89.7674 198.484 94.8166 198.816 99.9415C199.178 94.3027 195.645 88.6034 188.187 84.2949Z" fill="white"/>
<path d="M193.456 117.448C176.155 127.244 148.255 127.002 131.135 116.903C122.982 112.096 118.755 105.928 118.423 99.7147C118.091 106.442 122.318 113.245 131.135 118.46C148.255 128.559 176.155 128.801 193.456 119.005C202.515 113.865 206.863 107.001 206.485 100.168C206.168 106.472 201.835 112.716 193.456 117.448Z" fill="white"/>
<path d="M166.372 120.063H158.551C158.009 120.063 157.57 120.503 157.57 121.045V121.197C157.57 121.739 158.009 122.179 158.551 122.179H166.372C166.914 122.179 167.353 121.739 167.353 121.197V121.045C167.353 120.503 166.914 120.063 166.372 120.063Z" fill="#0C0A78"/>
<path d="M166.372 120.063H158.567C158.023 120.063 157.585 120.501 157.585 121.045V121.181C157.585 121.272 157.615 121.363 157.646 121.438C157.766 121.03 158.129 120.713 158.582 120.713H166.387C166.84 120.713 167.202 121.015 167.323 121.438C167.353 121.348 167.383 121.272 167.383 121.181V121.045C167.383 120.501 166.946 120.063 166.402 120.063H166.372Z" fill="url(#paint17_linear_5648_26559)"/>
<path d="M163.654 191.478C162.703 195.091 159.004 197.222 155.396 196.27C151.788 195.318 149.659 191.614 150.61 188.001C151.561 184.388 154.958 183.375 158.567 184.327C162.175 185.28 164.606 187.865 163.654 191.463V191.478Z" fill="#E8975B"/>
<path d="M168.968 184.372C167.61 185.703 165.874 185.536 164.726 184.342C163.579 183.163 163.443 181.425 164.802 180.094C166.16 178.764 168.742 178.114 169.889 179.293C171.037 180.472 170.327 183.042 168.968 184.372Z" fill="#E8975B"/>
<path d="M161.918 178.718C161.586 180.593 160.076 181.47 158.446 181.168C156.815 180.88 155.698 179.535 156.03 177.66C156.362 175.786 158.083 173.745 159.714 174.047C161.345 174.334 162.25 176.844 161.918 178.718Z" fill="#E8975B"/>
<path d="M153.222 177.842C153.947 179.595 153.132 181.152 151.607 181.772C150.082 182.407 148.421 181.878 147.697 180.109C146.972 178.356 147.334 175.71 148.859 175.075C150.384 174.44 152.497 176.073 153.222 177.827V177.842Z" fill="#E8975B"/>
<path opacity="0.5" d="M165.224 121.121C165.224 121.121 188.837 113.199 179.28 86.0334C169.723 58.8673 151.109 50.5829 158.597 28.8591C158.597 28.8591 146.851 46.4559 157.827 70.2507C168.803 94.0456 171.218 91.3245 171.082 102.708C170.931 116.238 160.016 121.121 160.016 121.121H165.209H165.224Z" fill="white"/>
<path opacity="0.5" d="M167.353 32.6235C167.353 32.6235 164.892 16.3722 180.126 0C180.126 0 166.659 30.114 171.067 44.9744C171.067 44.9744 167.504 35.526 167.353 32.6235Z" fill="white"/>
</g>
<defs>
<linearGradient id="paint0_linear_5648_26559" x1="612.753" y1="407.219" x2="662" y2="407.219" gradientUnits="userSpaceOnUse">
<stop stop-color="#E39A65"/>
<stop offset="1" stop-color="#E95F8D"/>
</linearGradient>
<linearGradient id="paint1_linear_5648_26559" x1="545.343" y1="339.659" x2="628.046" y2="339.659" gradientUnits="userSpaceOnUse">
<stop stop-color="#E39A65"/>
<stop offset="1" stop-color="#E95F8D"/>
</linearGradient>
<linearGradient id="paint2_linear_5648_26559" x1="0" y1="367.4" x2="82.7028" y2="367.4" gradientUnits="userSpaceOnUse">
<stop stop-color="#E39A65"/>
<stop offset="1" stop-color="#E95F8D"/>
</linearGradient>
<linearGradient id="paint3_linear_5648_26559" x1="96.2754" y1="362.078" x2="537.659" y2="362.078" gradientUnits="userSpaceOnUse">
<stop stop-color="#E39A65"/>
<stop offset="1" stop-color="#E95F8D"/>
</linearGradient>
<radialGradient id="paint4_radial_5648_26559" cx="0" cy="0" r="1" gradientUnits="userSpaceOnUse" gradientTransform="translate(340.081 34.8609) scale(337.122 337.573)">
<stop stop-color="#E39A65"/>
<stop offset="0.47" stop-color="#A92FFB"/>
<stop offset="0.59" stop-color="#881BFA"/>
<stop offset="0.74" stop-color="#6507FA"/>
<stop offset="0.8" stop-color="#0D0C6F"/>
</radialGradient>
<radialGradient id="paint5_radial_5648_26559" cx="0" cy="0" r="1" gradientUnits="userSpaceOnUse" gradientTransform="translate(133.898 305.947) scale(368.63 369.123)">
<stop stop-color="#E39A65"/>
<stop offset="0.47" stop-color="#A92FFB"/>
<stop offset="0.57" stop-color="#881BFA"/>
<stop offset="0.68" stop-color="#6507FA"/>
<stop offset="0.74" stop-color="#0D0C6F"/>
</radialGradient>
<radialGradient id="paint6_radial_5648_26559" cx="0" cy="0" r="1" gradientUnits="userSpaceOnUse" gradientTransform="translate(167.806 231.856) scale(330.57 331.012)">
<stop stop-color="#E39A65"/>
<stop offset="0.47" stop-color="#A92FFB"/>
<stop offset="0.59" stop-color="#881BFA"/>
<stop offset="0.73" stop-color="#6507FA"/>
<stop offset="1" stop-color="#3919BB"/>
</radialGradient>
<radialGradient id="paint7_radial_5648_26559" cx="0" cy="0" r="1" gradientUnits="userSpaceOnUse" gradientTransform="translate(250.147 105.278) scale(337.182 337.633)">
<stop stop-color="#E39A65"/>
<stop offset="0.47" stop-color="#A92FFB"/>
<stop offset="0.59" stop-color="#881BFA"/>
<stop offset="0.73" stop-color="#6507FA"/>
<stop offset="1" stop-color="#3919BB"/>
</radialGradient>
<linearGradient id="paint8_linear_5648_26559" x1="287.211" y1="193.912" x2="557.406" y2="193.912" gradientUnits="userSpaceOnUse">
<stop stop-color="#3919BB"/>
<stop offset="1" stop-color="#6507FA"/>
</linearGradient>
<radialGradient id="paint9_radial_5648_26559" cx="0" cy="0" r="1" gradientUnits="userSpaceOnUse" gradientTransform="translate(127.059 33.1677) scale(525.158 525.861)">
<stop stop-color="#E39A65"/>
<stop offset="0.47" stop-color="#A92FFB"/>
<stop offset="0.59" stop-color="#881BFA"/>
<stop offset="0.73" stop-color="#6507FA"/>
<stop offset="1" stop-color="#3919BB"/>
</radialGradient>
<linearGradient id="paint10_linear_5648_26559" x1="102.993" y1="230.919" x2="218.91" y2="230.919" gradientUnits="userSpaceOnUse">
<stop stop-color="#E39A65"/>
<stop offset="1" stop-color="#E95F8D"/>
</linearGradient>
<radialGradient id="paint11_radial_5648_26559" cx="0" cy="0" r="1" gradientUnits="userSpaceOnUse" gradientTransform="translate(113.275 136.238) scale(249.633 249.967)">
<stop stop-color="#E39A65"/>
<stop offset="0.15" stop-color="#A92FFB"/>
<stop offset="0.41" stop-color="#3919BB"/>
<stop offset="0.93" stop-color="#3919BB"/>
</radialGradient>
<linearGradient id="paint12_linear_5648_26559" x1="117.698" y1="105.278" x2="207.24" y2="105.278" gradientUnits="userSpaceOnUse">
<stop stop-color="#E39A65"/>
<stop offset="0.25" stop-color="#A92FFB"/>
<stop offset="0.56" stop-color="#3919BB"/>
</linearGradient>
<linearGradient id="paint13_linear_5648_26559" x1="126.092" y1="100.712" x2="198.831" y2="100.712" gradientUnits="userSpaceOnUse">
<stop stop-color="#4F1FEC"/>
<stop offset="1" stop-color="#A92FFB"/>
</linearGradient>
<linearGradient id="paint14_linear_5648_26559" x1="124.371" y1="-3.96737e-05" x2="197.11" y2="-3.96737e-05" gradientUnits="userSpaceOnUse">
<stop stop-color="#4F1FEC"/>
<stop offset="1" stop-color="#A92FFB"/>
</linearGradient>
<linearGradient id="paint15_linear_5648_26559" x1="126.092" y1="91.1129" x2="217.808" y2="91.1129" gradientUnits="userSpaceOnUse">
<stop stop-color="#131060"/>
<stop offset="0.19" stop-color="#140F62"/>
<stop offset="0.28" stop-color="#190F6A"/>
<stop offset="0.36" stop-color="#220F77"/>
<stop offset="0.42" stop-color="#2E0F8A"/>
<stop offset="0.48" stop-color="#3D0EA3"/>
<stop offset="0.54" stop-color="#510EC1"/>
<stop offset="0.58" stop-color="#670DE5"/>
<stop offset="0.61" stop-color="#740DF8"/>
<stop offset="0.62" stop-color="#7A14EF"/>
<stop offset="0.68" stop-color="#9B3BC2"/>
<stop offset="0.75" stop-color="#B75C9D"/>
<stop offset="0.81" stop-color="#CC7680"/>
<stop offset="0.88" stop-color="#DB886B"/>
<stop offset="0.94" stop-color="#E4935F"/>
<stop offset="1" stop-color="#E8975B"/>
</linearGradient>
<radialGradient id="paint16_radial_5648_26559" cx="0" cy="0" r="1" gradientUnits="userSpaceOnUse" gradientTransform="translate(106.511 79.9108) scale(163.292 163.51)">
<stop stop-color="#E39A65"/>
<stop offset="0.25" stop-color="#A92FFB"/>
<stop offset="0.74" stop-color="#3919BB"/>
</radialGradient>
<linearGradient id="paint17_linear_5648_26559" x1="156.71" y1="120.758" x2="169.391" y2="120.758" gradientUnits="userSpaceOnUse">
<stop stop-color="#131060"/>
<stop offset="0.19" stop-color="#140F62"/>
<stop offset="0.28" stop-color="#190F6A"/>
<stop offset="0.36" stop-color="#220F77"/>
<stop offset="0.42" stop-color="#2E0F8A"/>
<stop offset="0.48" stop-color="#3D0EA3"/>
<stop offset="0.54" stop-color="#510EC1"/>
<stop offset="0.58" stop-color="#670DE5"/>
<stop offset="0.61" stop-color="#740DF8"/>
<stop offset="0.62" stop-color="#7A14EF"/>
<stop offset="0.68" stop-color="#9B3BC2"/>
<stop offset="0.75" stop-color="#B75C9D"/>
<stop offset="0.81" stop-color="#CC7680"/>
<stop offset="0.88" stop-color="#DB886B"/>
<stop offset="0.94" stop-color="#E4935F"/>
<stop offset="1" stop-color="#E8975B"/>
</linearGradient>
<clipPath id="clip0_5648_26559">
<rect width="662" height="491" fill="white"/>
</clipPath>
</defs>
</svg>
